<?xml version="1.0" standalone="no"?>
<!DOCTYPE svg PUBLIC "-//W3C//DTD SVG 1.1//EN" "http://www.w3.org/Graphics/SVG/1.1/DTD/svg11.dtd" >
<svg xmlns="http://www.w3.org/2000/svg">
<metadata>Generated by IcoMoon</metadata>
<defs>
<font id="icomoon" horiz-adv-x="1024">
<font-face units-per-em="1024" ascent="960" descent="-64" />
<missing-glyph horiz-adv-x="1024" />
<glyph unicode="&#x20;" horiz-adv-x="512" d="" />
<glyph unicode="&#xe900;" glyph-name="dehaze" d="M86 704.667h852v-86h-852v86zM86 490.667h852v-86h-852v86zM86 276.667h852v-84h-852v84z" />
<glyph unicode="&#xe901;" glyph-name="dehaze1" d="M86 704.667h852v-86h-852v86zM86 490.667h852v-86h-852v86zM86 276.667h852v-84h-852v84z" />
<glyph unicode="&#xe902;" glyph-name="chevron-down" d="M225.835 524.502l256-256c16.683-16.683 43.691-16.683 60.331 0l256 256c16.683 16.683 16.683 43.691 0 60.331s-43.691 16.683-60.331 0l-225.835-225.835-225.835 225.835c-16.683 16.683-43.691 16.683-60.331 0s-16.683-43.691 0-60.331z" />
<glyph unicode="&#xe903;" glyph-name="chevron-down1" d="M225.835 524.502l256-256c16.683-16.683 43.691-16.683 60.331 0l256 256c16.683 16.683 16.683 43.691 0 60.331s-43.691 16.683-60.331 0l-225.835-225.835-225.835 225.835c-16.683 16.683-43.691 16.683-60.331 0s-16.683-43.691 0-60.331z" />
<glyph unicode="&#xe904;" glyph-name="search11" d="M406 340.667q80 0 136 56t56 136-56 136-136 56-136-56-56-136 56-136 136-56zM662 340.667l212-212-64-64-212 212v34l-12 12q-76-66-180-66-116 0-197 80t-81 196 81 197 197 81 196-81 80-197q0-42-20-95t-46-85l12-12h34z" />
<glyph unicode="&#xe905;" glyph-name="search" d="M684.416 262.144c-1.451-1.109-2.859-2.347-4.224-3.712s-2.56-2.731-3.712-4.224c-53.675-51.755-126.677-83.541-207.147-83.541-82.475 0-157.099 33.365-211.2 87.467s-87.467 128.725-87.467 211.2 33.365 157.099 87.467 211.2 128.725 87.467 211.2 87.467 157.099-33.365 211.2-87.467 87.467-128.725 87.467-211.2c0-80.469-31.787-153.472-83.584-207.189zM926.165 72.832l-156.8 156.8c52.523 65.707 83.968 149.035 83.968 239.701 0 106.027-43.008 202.069-112.469 271.531s-165.504 112.469-271.531 112.469-202.069-43.008-271.531-112.469-112.469-165.504-112.469-271.531 43.008-202.069 112.469-271.531 165.504-112.469 271.531-112.469c90.667 0 173.995 31.445 239.701 83.968l156.8-156.8c16.683-16.683 43.691-16.683 60.331 0s16.683 43.691 0 60.331z" />
<glyph unicode="&#xe906;" glyph-name="volume-2" d="M426.667 636.544v-419.797l-144 115.2c-7.253 5.845-16.555 9.387-26.667 9.387h-128v170.667h128c9.301-0.043 18.731 3.029 26.667 9.344zM442.667 758.656l-201.643-161.323h-155.691c-23.552 0-42.667-19.115-42.667-42.667v-256c0-23.552 19.115-42.667 42.667-42.667h155.691l201.643-161.323c18.389-14.72 45.269-11.733 59.989 6.656 6.315 7.893 9.387 17.365 9.344 26.667v597.333c0 23.552-19.115 42.667-42.667 42.667-10.112 0-19.413-3.541-26.667-9.344zM783.488 698.155c74.965-75.008 112.427-173.184 112.427-271.488s-37.461-196.48-112.427-271.488c-16.64-16.683-16.64-43.691 0-60.331s43.691-16.64 60.331 0c91.605 91.605 137.429 211.797 137.429 331.819s-45.824 240.213-137.429 331.819c-16.64 16.683-43.691 16.683-60.331 0s-16.683-43.691 0-60.331zM632.875 547.542c33.323-33.323 49.963-76.928 49.963-120.661s-16.64-87.339-49.963-120.661c-16.64-16.683-16.64-43.691 0-60.331s43.691-16.64 60.331 0c49.963 49.963 74.965 115.541 74.965 180.992s-25.003 131.029-74.965 180.992c-16.64 16.683-43.691 16.683-60.331 0s-16.683-43.691 0-60.331z" />
<glyph unicode="&#xe907;" glyph-name="volume-21" d="M426.667 636.544v-419.797l-144 115.2c-7.253 5.845-16.555 9.387-26.667 9.387h-128v170.667h128c9.301-0.043 18.731 3.029 26.667 9.344zM442.667 758.656l-201.643-161.323h-155.691c-23.552 0-42.667-19.115-42.667-42.667v-256c0-23.552 19.115-42.667 42.667-42.667h155.691l201.643-161.323c18.389-14.72 45.269-11.733 59.989 6.656 6.315 7.893 9.387 17.365 9.344 26.667v597.333c0 23.552-19.115 42.667-42.667 42.667-10.112 0-19.413-3.541-26.667-9.344zM783.488 698.155c74.965-75.008 112.427-173.184 112.427-271.488s-37.461-196.48-112.427-271.488c-16.64-16.683-16.64-43.691 0-60.331s43.691-16.64 60.331 0c91.605 91.605 137.429 211.797 137.429 331.819s-45.824 240.213-137.429 331.819c-16.64 16.683-43.691 16.683-60.331 0s-16.683-43.691 0-60.331zM632.875 547.542c33.323-33.323 49.963-76.928 49.963-120.661s-16.64-87.339-49.963-120.661c-16.64-16.683-16.64-43.691 0-60.331s43.691-16.64 60.331 0c49.963 49.963 74.965 115.541 74.965 180.992s-25.003 131.029-74.965 180.992c-16.64 16.683-43.691 16.683-60.331 0s-16.683-43.691 0-60.331z" />
<glyph unicode="&#xe908;" glyph-name="search1" d="M684.416 262.144c-1.451-1.109-2.859-2.347-4.224-3.712s-2.56-2.731-3.712-4.224c-53.675-51.755-126.677-83.541-207.147-83.541-82.475 0-157.099 33.365-211.2 87.467s-87.467 128.725-87.467 211.2 33.365 157.099 87.467 211.2 128.725 87.467 211.2 87.467 157.099-33.365 211.2-87.467 87.467-128.725 87.467-211.2c0-80.469-31.787-153.472-83.584-207.189zM926.165 72.832l-156.8 156.8c52.523 65.707 83.968 149.035 83.968 239.701 0 106.027-43.008 202.069-112.469 271.531s-165.504 112.469-271.531 112.469-202.069-43.008-271.531-112.469-112.469-165.504-112.469-271.531 43.008-202.069 112.469-271.531 165.504-112.469 271.531-112.469c90.667 0 173.995 31.445 239.701 83.968l156.8-156.8c16.683-16.683 43.691-16.683 60.331 0s16.683 43.691 0 60.331z" />
<glyph unicode="&#xe909;" glyph-name="search111" d="M406 340.667q80 0 136 56t56 136-56 136-136 56-136-56-56-136 56-136 136-56zM662 340.667l212-212-64-64-212 212v34l-12 12q-76-66-180-66-116 0-197 80t-81 196 81 197 197 81 196-81 80-197q0-42-20-95t-46-85l12-12h34z" />
<glyph unicode="&#xe90a;" glyph-name="chevron-left" d="M670.165 200.832l-225.835 225.835 225.835 225.835c16.683 16.683 16.683 43.691 0 60.331s-43.691 16.683-60.331 0l-256-256c-16.683-16.683-16.683-43.691 0-60.331l256-256c16.683-16.683 43.691-16.683 60.331 0s16.683 43.691 0 60.331z" />
<glyph unicode="&#xe90b;" glyph-name="chevron-left1" d="M670.165 200.832l-225.835 225.835 225.835 225.835c16.683 16.683 16.683 43.691 0 60.331s-43.691 16.683-60.331 0l-256-256c-16.683-16.683-16.683-43.691 0-60.331l256-256c16.683-16.683 43.691-16.683 60.331 0s16.683 43.691 0 60.331z" />
<glyph unicode="&#xe90c;" glyph-name="arrow_forward" d="M512 768.667l342-342-342-342-60 60 238 240h-520v84h520l-238 240z" />
<glyph unicode="&#xe90d;" glyph-name="arrow_forward1" d="M512 768.667l342-342-342-342-60 60 238 240h-520v84h520l-238 240z" />
<glyph unicode="&#xe90e;" glyph-name="chevron-right" d="M414.165 140.502l256 256c16.683 16.683 16.683 43.691 0 60.331l-256 256c-16.683 16.683-43.691 16.683-60.331 0s-16.683-43.691 0-60.331l225.835-225.835-225.835-225.835c-16.683-16.683-16.683-43.691 0-60.331s43.691-16.683 60.331 0z" />
<glyph unicode="&#xe90f;" glyph-name="chevron-right1" d="M414.165 140.502l256 256c16.683 16.683 16.683 43.691 0 60.331l-256 256c-16.683 16.683-43.691 16.683-60.331 0s-16.683-43.691 0-60.331l225.835-225.835-225.835-225.835c-16.683-16.683-16.683-43.691 0-60.331s43.691-16.683 60.331 0z" />
<glyph unicode="&#xe910;" glyph-name="arrow_drop_down" d="M298 512.667h428l-214-214z" />
<glyph unicode="&#xe911;" glyph-name="arrow_drop_down1" d="M298 512.667h428l-214-214z" />
<glyph unicode="&#xe912;" glyph-name="chevron-up" d="M798.165 328.832l-256 256c-16.683 16.683-43.691 16.683-60.331 0l-256-256c-16.683-16.683-16.683-43.691 0-60.331s43.691-16.683 60.331 0l225.835 225.835 225.835-225.835c16.683-16.683 43.691-16.683 60.331 0s16.683 43.691 0 60.331z" />
<glyph unicode="&#xe913;" glyph-name="chevron-up1" d="M798.165 328.832l-256 256c-16.683 16.683-43.691 16.683-60.331 0l-256-256c-16.683-16.683-16.683-43.691 0-60.331s43.691-16.683 60.331 0l225.835 225.835 225.835-225.835c16.683-16.683 43.691-16.683 60.331 0s16.683 43.691 0 60.331z" />
<glyph unicode="&#xe914;" glyph-name="expand_less" d="M512 596.667l256-256-60-60-196 196-196-196-60 60z" />
<glyph unicode="&#xe915;" glyph-name="expand_less1" d="M512 596.667l256-256-60-60-196 196-196-196-60 60z" />
<glyph unicode="&#xe916;" glyph-name="display" d="M0 896v-640h1024v640h-1024zM960 320h-896v512h896v-512zM672 192h-320l-32-128-64-64h512l-64 64z" />
<glyph unicode="&#xe917;" glyph-name="display1" d="M0 896v-640h1024v640h-1024zM960 320h-896v512h896v-512zM672 192h-320l-32-128-64-64h512l-64 64z" />
<glyph unicode="&#xe918;" glyph-name="arrow-right" d="M481.835 695.168l225.835-225.835h-494.336c-23.552 0-42.667-19.115-42.667-42.667s19.115-42.667 42.667-42.667h494.336l-225.835-225.835c-16.683-16.683-16.683-43.691 0-60.331s43.691-16.683 60.331 0l298.667 298.667c3.925 3.925 7.083 8.619 9.259 13.824 4.309 10.453 4.309 22.229 0 32.683-2.091 5.035-5.163 9.728-9.259 13.824l-298.667 298.667c-16.683 16.683-43.691 16.683-60.331 0s-16.683-43.691 0-60.331z" />
<glyph unicode="&#xe919;" glyph-name="arrow-right1" d="M481.835 695.168l225.835-225.835h-494.336c-23.552 0-42.667-19.115-42.667-42.667s19.115-42.667 42.667-42.667h494.336l-225.835-225.835c-16.683-16.683-16.683-43.691 0-60.331s43.691-16.683 60.331 0l298.667 298.667c3.925 3.925 7.083 8.619 9.259 13.824 4.309 10.453 4.309 22.229 0 32.683-2.091 5.035-5.163 9.728-9.259 13.824l-298.667 298.667c-16.683 16.683-43.691 16.683-60.331 0s-16.683-43.691 0-60.331z" />
<glyph unicode="&#xe91a;" glyph-name="expand_more" d="M708 572.667l60-60-256-256-256 256 60 60 196-196z" />
<glyph unicode="&#xe91b;" glyph-name="expand_more1" d="M708 572.667l60-60-256-256-256 256 60 60 196-196z" />
<glyph unicode="&#xe91c;" glyph-name="content_copy" d="M810 42.667v598h-468v-598h468zM810 724.667q34 0 60-25t26-59v-598q0-34-26-60t-60-26h-468q-34 0-60 26t-26 60v598q0 34 26 59t60 25h468zM682 896.667v-86h-512v-598h-84v598q0 34 25 60t59 26h512z" />
<glyph unicode="&#xe91d;" glyph-name="content_copy1" d="M810 42.667v598h-468v-598h468zM810 724.667q34 0 60-25t26-59v-598q0-34-26-60t-60-26h-468q-34 0-60 26t-26 60v598q0 34 26 59t60 25h468zM682 896.667v-86h-512v-598h-84v598q0 34 25 60t59 26h512z" />
<glyph unicode="&#xe91e;" glyph-name="clock" d="M981.333 426.667c0 129.579-52.565 246.997-137.472 331.861s-202.283 137.472-331.861 137.472-246.997-52.565-331.861-137.472-137.472-202.283-137.472-331.861 52.565-246.997 137.472-331.861 202.283-137.472 331.861-137.472 246.997 52.565 331.861 137.472 137.472 202.283 137.472 331.861zM896 426.667c0-106.069-42.923-201.984-112.469-271.531s-165.461-112.469-271.531-112.469-201.984 42.923-271.531 112.469-112.469 165.461-112.469 271.531 42.923 201.984 112.469 271.531 165.461 112.469 271.531 112.469 201.984-42.923 271.531-112.469 112.469-165.461 112.469-271.531zM469.333 682.667v-256c0-16.597 9.472-31.019 23.595-38.144l170.667-85.333c21.077-10.539 46.72-2.005 57.259 19.072s2.005 46.72-19.072 57.259l-147.115 73.515v229.632c0 23.552-19.115 42.667-42.667 42.667s-42.667-19.115-42.667-42.667z" />
<glyph unicode="&#xe91f;" glyph-name="clock1" d="M981.333 426.667c0 129.579-52.565 246.997-137.472 331.861s-202.283 137.472-331.861 137.472-246.997-52.565-331.861-137.472-137.472-202.283-137.472-331.861 52.565-246.997 137.472-331.861 202.283-137.472 331.861-137.472 246.997 52.565 331.861 137.472 137.472 202.283 137.472 331.861zM896 426.667c0-106.069-42.923-201.984-112.469-271.531s-165.461-112.469-271.531-112.469-201.984 42.923-271.531 112.469-112.469 165.461-112.469 271.531 42.923 201.984 112.469 271.531 165.461 112.469 271.531 112.469 201.984-42.923 271.531-112.469 112.469-165.461 112.469-271.531zM469.333 682.667v-256c0-16.597 9.472-31.019 23.595-38.144l170.667-85.333c21.077-10.539 46.72-2.005 57.259 19.072s2.005 46.72-19.072 57.259l-147.115 73.515v229.632c0 23.552-19.115 42.667-42.667 42.667s-42.667-19.115-42.667-42.667z" />
<glyph unicode="&#xe920;" glyph-name="heart" d="M859.008 711.808c37.547-37.589 56.277-86.656 56.277-135.851s-18.773-98.261-56.277-135.765l-347.008-347.008-347.008 347.008c-37.504 37.504-56.235 86.571-56.235 135.808s18.731 98.304 56.235 135.808 86.571 56.235 135.808 56.235 98.304-18.731 135.808-56.235l45.227-45.227c16.683-16.683 43.691-16.683 60.331 0l45.312 45.312c37.504 37.504 86.571 56.235 135.765 56.192s98.261-18.773 135.765-56.277zM919.339 772.139c-54.144 54.144-125.184 81.237-196.096 81.28s-141.952-27.051-196.139-81.195l-15.104-15.147-15.061 15.061c-54.144 54.144-125.227 81.237-196.139 81.237s-141.995-27.093-196.139-81.237-81.237-125.227-81.237-196.139 27.093-141.995 81.237-196.139l377.173-377.173c16.683-16.683 43.691-16.683 60.331 0l377.173 377.173c54.144 54.144 81.237 125.184 81.28 196.096s-27.051 141.952-81.28 196.181z" />
<glyph unicode="&#xe921;" glyph-name="heart1" d="M859.008 711.808c37.547-37.589 56.277-86.656 56.277-135.851s-18.773-98.261-56.277-135.765l-347.008-347.008-347.008 347.008c-37.504 37.504-56.235 86.571-56.235 135.808s18.731 98.304 56.235 135.808 86.571 56.235 135.808 56.235 98.304-18.731 135.808-56.235l45.227-45.227c16.683-16.683 43.691-16.683 60.331 0l45.312 45.312c37.504 37.504 86.571 56.235 135.765 56.192s98.261-18.773 135.765-56.277zM919.339 772.139c-54.144 54.144-125.184 81.237-196.096 81.28s-141.952-27.051-196.139-81.195l-15.104-15.147-15.061 15.061c-54.144 54.144-125.227 81.237-196.139 81.237s-141.995-27.093-196.139-81.237-81.237-125.227-81.237-196.139 27.093-141.995 81.237-196.139l377.173-377.173c16.683-16.683 43.691-16.683 60.331 0l377.173 377.173c54.144 54.144 81.237 125.184 81.28 196.096s-27.051 141.952-81.28 196.181z" />
<glyph unicode="&#xe922;" glyph-name="globe" d="M723.243 469.334c-9.131 114.773-47.019 228.395-114.091 328.96 66.987-17.451 126.848-52.565 174.379-100.096 60.075-60.075 100.309-139.861 110.123-228.864zM609.237 55.083c63.275 94.976 103.936 207.061 113.877 328.917h170.539c-9.813-89.003-50.048-168.789-110.123-228.864-47.488-47.488-107.349-82.603-174.293-100.053zM300.757 384c9.131-114.773 47.019-228.395 114.091-328.96-66.987 17.451-126.848 52.565-174.379 100.096-60.075 60.075-100.309 139.861-110.123 228.864zM414.763 798.251c-63.232-94.976-103.936-207.061-113.877-328.917h-170.539c9.813 89.003 50.048 168.789 110.123 228.864 47.531 47.488 107.349 82.603 174.293 100.053zM511.872 896c-129.536-0.043-246.869-52.608-331.733-137.472-84.907-84.864-137.472-202.283-137.472-331.861s52.565-246.997 137.472-331.861c84.821-84.864 202.155-137.429 331.691-137.472 0.043 0 0.128 0 0.171 0s0.085 0 0.128 0c129.536 0.043 246.869 52.608 331.733 137.472 84.907 84.864 137.472 202.283 137.472 331.861s-52.565 246.997-137.472 331.861c-84.821 84.864-202.155 137.429-331.691 137.472-0.043 0-0.128 0-0.171 0s-0.085 0-0.128 0zM637.696 384c-10.752-118.955-56.149-228.693-125.653-317.909-73.771 94.763-115.456 205.568-125.653 317.909zM511.957 787.243c73.771-94.763 115.456-205.568 125.653-317.909h-251.307c10.752 118.955 56.149 228.693 125.653 317.909z" />
<glyph unicode="&#xe923;" glyph-name="globe1" d="M723.243 469.334c-9.131 114.773-47.019 228.395-114.091 328.96 66.987-17.451 126.848-52.565 174.379-100.096 60.075-60.075 100.309-139.861 110.123-228.864zM609.237 55.083c63.275 94.976 103.936 207.061 113.877 328.917h170.539c-9.813-89.003-50.048-168.789-110.123-228.864-47.488-47.488-107.349-82.603-174.293-100.053zM300.757 384c9.131-114.773 47.019-228.395 114.091-328.96-66.987 17.451-126.848 52.565-174.379 100.096-60.075 60.075-100.309 139.861-110.123 228.864zM414.763 798.251c-63.232-94.976-103.936-207.061-113.877-328.917h-170.539c9.813 89.003 50.048 168.789 110.123 228.864 47.531 47.488 107.349 82.603 174.293 100.053zM511.872 896c-129.536-0.043-246.869-52.608-331.733-137.472-84.907-84.864-137.472-202.283-137.472-331.861s52.565-246.997 137.472-331.861c84.821-84.864 202.155-137.429 331.691-137.472 0.043 0 0.128 0 0.171 0s0.085 0 0.128 0c129.536 0.043 246.869 52.608 331.733 137.472 84.907 84.864 137.472 202.283 137.472 331.861s-52.565 246.997-137.472 331.861c-84.821 84.864-202.155 137.429-331.691 137.472-0.043 0-0.128 0-0.171 0s-0.085 0-0.128 0zM637.696 384c-10.752-118.955-56.149-228.693-125.653-317.909-73.771 94.763-115.456 205.568-125.653 317.909zM511.957 787.243c73.771-94.763 115.456-205.568 125.653-317.909h-251.307c10.752 118.955 56.149 228.693 125.653 317.909z" />
<glyph unicode="&#xe924;" glyph-name="airplay" d="M213.333 256h-42.667c-11.776 0-22.4 4.736-30.165 12.501s-12.501 18.389-12.501 30.165v426.667c0 11.776 4.736 22.4 12.501 30.165s18.389 12.501 30.165 12.501h682.667c11.776 0 22.4-4.736 30.165-12.501s12.501-18.389 12.501-30.165v-426.667c0-11.776-4.736-22.4-12.501-30.165s-18.389-12.501-30.165-12.501h-42.667c-23.552 0-42.667-19.115-42.667-42.667s19.115-42.667 42.667-42.667h42.667c35.328 0 67.413 14.379 90.496 37.504s37.504 55.168 37.504 90.496v426.667c0 35.328-14.379 67.413-37.504 90.496s-55.168 37.504-90.496 37.504h-682.667c-35.328 0-67.413-14.379-90.496-37.504s-37.504-55.168-37.504-90.496v-426.667c0-35.328 14.379-67.413 37.504-90.496s55.168-37.504 90.496-37.504h42.667c23.552 0 42.667 19.115 42.667 42.667s-19.115 42.667-42.667 42.667zM544.768 325.974c-1.493 1.835-3.371 3.712-5.461 5.461-18.091 15.104-45.013 12.629-60.075-5.461l-213.333-256c-6.144-7.339-9.899-16.896-9.899-27.307 0-23.552 19.115-42.667 42.667-42.667h426.667c9.6-0.043 19.328 3.2 27.307 9.899 18.091 15.104 20.565 41.984 5.461 60.075zM512 232.022l122.24-146.688h-244.48z" />
<glyph unicode="&#xe925;" glyph-name="airplay1" d="M213.333 256h-42.667c-11.776 0-22.4 4.736-30.165 12.501s-12.501 18.389-12.501 30.165v426.667c0 11.776 4.736 22.4 12.501 30.165s18.389 12.501 30.165 12.501h682.667c11.776 0 22.4-4.736 30.165-12.501s12.501-18.389 12.501-30.165v-426.667c0-11.776-4.736-22.4-12.501-30.165s-18.389-12.501-30.165-12.501h-42.667c-23.552 0-42.667-19.115-42.667-42.667s19.115-42.667 42.667-42.667h42.667c35.328 0 67.413 14.379 90.496 37.504s37.504 55.168 37.504 90.496v426.667c0 35.328-14.379 67.413-37.504 90.496s-55.168 37.504-90.496 37.504h-682.667c-35.328 0-67.413-14.379-90.496-37.504s-37.504-55.168-37.504-90.496v-426.667c0-35.328 14.379-67.413 37.504-90.496s55.168-37.504 90.496-37.504h42.667c23.552 0 42.667 19.115 42.667 42.667s-19.115 42.667-42.667 42.667zM544.768 325.974c-1.493 1.835-3.371 3.712-5.461 5.461-18.091 15.104-45.013 12.629-60.075-5.461l-213.333-256c-6.144-7.339-9.899-16.896-9.899-27.307 0-23.552 19.115-42.667 42.667-42.667h426.667c9.6-0.043 19.328 3.2 27.307 9.899 18.091 15.104 20.565 41.984 5.461 60.075zM512 232.022l122.24-146.688h-244.48z" />
<glyph unicode="&#xe926;" glyph-name="launch" d="M598 810.667h298v-298h-86v152l-418-418-60 60 418 418h-152v86zM810 128.667v298h86v-298q0-34-26-60t-60-26h-596q-36 0-61 25t-25 61v596q0 36 25 61t61 25h298v-86h-298v-596h596z" />
<glyph unicode="&#xe927;" glyph-name="launch1" d="M598 810.667h298v-298h-86v152l-418-418-60 60 418 418h-152v86zM810 128.667v298h86v-298q0-34-26-60t-60-26h-596q-36 0-61 25t-25 61v596q0 36 25 61t61 25h298v-86h-298v-596h596z" />
<glyph unicode="&#xe928;" glyph-name="contacts" d="M810.667 810.667h-469.333c-70.571 0-128-57.429-128-128v-42.667h-42.667c-23.595 0-42.667-19.115-42.667-42.667s19.072-42.667 42.667-42.667h42.667v-85.333h-42.667c-23.595 0-42.667-19.115-42.667-42.667s19.072-42.667 42.667-42.667h42.667v-85.333h-42.667c-23.595 0-42.667-19.115-42.667-42.667s19.072-42.667 42.667-42.667h42.667v-42.667c0-70.571 57.429-128 128-128h469.333c70.571 0 128 57.429 128 128v512c0 70.571-57.429 128-128 128zM298.667 682.667c0 23.509 19.157 42.667 42.667 42.667v-85.333h-42.667v42.667zM298.667 554.667h42.667v-85.333h-42.667v85.333zM298.667 384h42.667v-85.333h-42.667v85.333zM298.667 170.667v42.667h42.667v-85.333c-23.509 0-42.667 19.157-42.667 42.667zM853.333 170.667c0-23.509-19.157-42.667-42.667-42.667h-426.667v597.333h426.667c23.509 0 42.667-19.157 42.667-42.667v-512zM682.667 490.667c0-47.128-38.205-85.333-85.333-85.333s-85.333 38.205-85.333 85.333c0 47.128 38.205 85.333 85.333 85.333s85.333-38.205 85.333-85.333zM597.333 368.811c-66.645 0-106.667-30.507-106.667-60.971 0-15.232 40.021-30.507 106.667-30.507 62.549 0 106.667 15.232 106.667 30.507 0 30.464-41.813 60.971-106.667 60.971z" />
<glyph unicode="&#xe929;" glyph-name="phone" d="M490.592 327.68c-0.832 0.576-97.088 162.4-97.408 164.48-19.904 43.488-35.968 87.968-2.496 107.712l-138.912 234.24c-36-26.912-137.824-172.96 52.768-503.936 200.768-348.8 391.84-334.304 430.144-310.688l-135.36 228.64c-32-18.816-58.944 12.192-108.736 79.552zM827.584 108.256l0.032 0.192c0 0-105.696 178.112-105.76 178.176-8.384 14.112-26.4 18.56-40.448 10.368l-64.768-38.304 135.744-229.312c0 0 64.768 38.112 64.736 38.24h0.128c14.88 8.832 18.304 27.072 10.336 40.64zM473.152 648.448v0.128c14.88 8.8 18.368 27.040 10.4 40.48l0.064 0.192c0 0-108.736 183.328-108.8 183.36-8.352 14.176-26.432 18.56-40.416 10.368l-64.768-38.304 138.752-234.368c0 0 64.736 38.048 64.768 38.144z" />
<glyph unicode="&#xe92a;" glyph-name="cloud" d="M768 469.334c47.147 0 89.728-19.072 120.661-50.005s50.005-73.515 50.005-120.661-19.072-89.728-50.005-120.661-73.515-50.005-120.661-50.005h-383.787c-62.379 0.341-121.728 19.669-170.88 53.632-56.917 39.381-100.181 98.347-118.784 170.368-20.608 79.872-6.955 160.469 31.915 226.347s102.741 116.864 182.613 137.515 160.469 6.955 226.347-31.915 116.864-102.741 137.515-182.613c4.907-18.56 21.547-32 41.301-32zM768 554.667h-22.187c-30.933 87.765-91.435 158.208-167.040 202.795-84.608 49.877-188.373 67.541-291.029 41.003s-184.917-92.16-234.795-176.768-67.499-188.373-41.003-291.029c23.893-92.544 79.659-168.576 152.875-219.221 63.061-43.605 139.136-68.352 218.965-68.779h384.213c70.699 0 134.741 28.715 181.035 74.965s74.965 110.336 74.965 181.035-28.715 134.741-74.965 181.035-110.336 74.965-181.035 74.965z" />
<glyph unicode="&#xe92b;" glyph-name="cloud1" d="M768 469.334c47.147 0 89.728-19.072 120.661-50.005s50.005-73.515 50.005-120.661-19.072-89.728-50.005-120.661-73.515-50.005-120.661-50.005h-383.787c-62.379 0.341-121.728 19.669-170.88 53.632-56.917 39.381-100.181 98.347-118.784 170.368-20.608 79.872-6.955 160.469 31.915 226.347s102.741 116.864 182.613 137.515 160.469 6.955 226.347-31.915 116.864-102.741 137.515-182.613c4.907-18.56 21.547-32 41.301-32zM768 554.667h-22.187c-30.933 87.765-91.435 158.208-167.040 202.795-84.608 49.877-188.373 67.541-291.029 41.003s-184.917-92.16-234.795-176.768-67.499-188.373-41.003-291.029c23.893-92.544 79.659-168.576 152.875-219.221 63.061-43.605 139.136-68.352 218.965-68.779h384.213c70.699 0 134.741 28.715 181.035 74.965s74.965 110.336 74.965 181.035-28.715 134.741-74.965 181.035-110.336 74.965-181.035 74.965z" />
<glyph unicode="&#xe92c;" glyph-name="volume_up" d="M598 800.667q130-28 214-133t84-241-84-241-214-133v88q94 28 153 106t59 180-59 180-153 106v88zM704 426.667q0-120-106-172v344q44-22 75-72t31-100zM128 554.667h170l214 214v-684l-214 214h-170v256z" />
<glyph unicode="&#xe92d;" glyph-name="volume_up1" d="M598 800.667q130-28 214-133t84-241-84-241-214-133v88q94 28 153 106t59 180-59 180-153 106v88zM704 426.667q0-120-106-172v344q44-22 75-72t31-100zM128 554.667h170l214 214v-684l-214 214h-170v256z" />
<glyph unicode="&#xe92e;" glyph-name="info" d="M981.333 426.667c0 129.579-52.565 246.997-137.472 331.861s-202.283 137.472-331.861 137.472-246.997-52.565-331.861-137.472-137.472-202.283-137.472-331.861 52.565-246.997 137.472-331.861 202.283-137.472 331.861-137.472 246.997 52.565 331.861 137.472 137.472 202.283 137.472 331.861zM896 426.667c0-106.069-42.923-201.984-112.469-271.531s-165.461-112.469-271.531-112.469-201.984 42.923-271.531 112.469-112.469 165.461-112.469 271.531 42.923 201.984 112.469 271.531 165.461 112.469 271.531 112.469 201.984-42.923 271.531-112.469 112.469-165.461 112.469-271.531zM554.667 256v170.667c0 23.552-19.115 42.667-42.667 42.667s-42.667-19.115-42.667-42.667v-170.667c0-23.552 19.115-42.667 42.667-42.667s42.667 19.115 42.667 42.667zM554.667 597.334c0 23.552-19.115 42.667-42.667 42.667s-42.667-19.115-42.667-42.667 19.115-42.667 42.667-42.667 42.667 19.115 42.667 42.667z" />
<glyph unicode="&#xe92f;" glyph-name="info1" d="M981.333 426.667c0 129.579-52.565 246.997-137.472 331.861s-202.283 137.472-331.861 137.472-246.997-52.565-331.861-137.472-137.472-202.283-137.472-331.861 52.565-246.997 137.472-331.861 202.283-137.472 331.861-137.472 246.997 52.565 331.861 137.472 137.472 202.283 137.472 331.861zM896 426.667c0-106.069-42.923-201.984-112.469-271.531s-165.461-112.469-271.531-112.469-201.984 42.923-271.531 112.469-112.469 165.461-112.469 271.531 42.923 201.984 112.469 271.531 165.461 112.469 271.531 112.469 201.984-42.923 271.531-112.469 112.469-165.461 112.469-271.531zM554.667 256v170.667c0 23.552-19.115 42.667-42.667 42.667s-42.667-19.115-42.667-42.667v-170.667c0-23.552 19.115-42.667 42.667-42.667s42.667 19.115 42.667 42.667zM554.667 597.334c0 23.552-19.115 42.667-42.667 42.667s-42.667-19.115-42.667-42.667 19.115-42.667 42.667-42.667 42.667 19.115 42.667 42.667z" />
<glyph unicode="&#xe930;" glyph-name="local_printshop" d="M768 810.667v-170h-512v170h512zM810 426.667q18 0 31 12t13 30-13 31-31 13-30-13-12-31 12-30 30-12zM682 128.667v212h-340v-212h340zM810 596.667q52 0 90-38t38-90v-256h-170v-170h-512v170h-170v256q0 52 38 90t90 38h596z" />
<glyph unicode="&#xe931;" glyph-name="local_printshop1" d="M768 810.667v-170h-512v170h512zM810 426.667q18 0 31 12t13 30-13 31-31 13-30-13-12-31 12-30 30-12zM682 128.667v212h-340v-212h340zM810 596.667q52 0 90-38t38-90v-256h-170v-170h-512v170h-170v256q0 52 38 90t90 38h596z" />
<glyph unicode="&#xe932;" glyph-name="aperture" d="M487.339 640l94.848 164.267c77.867-14.379 147.499-52.267 201.344-106.069 17.749-17.749 33.792-37.248 47.829-58.197h-221.611zM314.88 512l-94.805 164.139c6.528 7.637 13.312 14.976 20.395 22.059 64 64 150.4 105.472 246.4 111.659l-110.592-191.573zM339.541 298.667h-189.696c-14.165 40.021-21.845 83.115-21.845 128 0 61.013 14.208 118.656 39.509 169.899l110.933-192.171zM745.515 448.939l-61.056 105.728h189.696c14.165-40.021 21.845-83.115 21.845-128 0-61.013-14.208-118.656-39.509-169.899l-109.909 190.379zM537.088 43.478l172.032 297.856 94.805-164.181c-6.528-7.595-13.312-14.976-20.395-22.016-64-64-150.4-105.472-246.4-111.659zM456.533-39.424c1.963-0.341 3.925-0.597 5.931-0.64 16.256-1.707 32.811-2.603 49.536-2.603 129.579 0 246.997 52.565 331.861 137.472 15.616 15.616 30.123 32.299 43.392 49.963 1.792 2.005 3.371 4.139 4.693 6.357 56.235 77.355 89.387 172.629 89.387 275.541 0 65.664-13.525 128.213-37.888 185.003-0.683 1.877-1.451 3.669-2.347 5.376-23.595 53.077-56.747 100.992-97.237 141.483-72.576 72.576-168.96 121.557-276.395 134.229-1.963 0.341-3.925 0.597-5.931 0.64-16.256 1.707-32.811 2.603-49.536 2.603-129.579 0-246.997-52.565-331.861-137.472-15.616-15.573-30.123-32.299-43.392-49.963-1.792-2.005-3.371-4.139-4.736-6.357-56.192-77.355-89.344-172.629-89.344-275.541 0-65.664 13.525-128.213 37.888-185.003 0.683-1.877 1.451-3.669 2.347-5.376 23.595-53.077 56.747-100.992 97.237-141.483 72.576-72.576 168.96-121.557 276.395-134.229zM536.661 213.334l-94.848-164.267c-77.867 14.379-147.499 52.267-201.344 106.069-17.749 17.749-33.792 37.248-47.829 58.197h221.611zM659.84 426.667l-73.899-128h-147.883l-73.899 128 73.899 128h147.883z" />
<glyph unicode="&#xe933;" glyph-name="aperture1" d="M487.339 640l94.848 164.267c77.867-14.379 147.499-52.267 201.344-106.069 17.749-17.749 33.792-37.248 47.829-58.197h-221.611zM314.88 512l-94.805 164.139c6.528 7.637 13.312 14.976 20.395 22.059 64 64 150.4 105.472 246.4 111.659l-110.592-191.573zM339.541 298.667h-189.696c-14.165 40.021-21.845 83.115-21.845 128 0 61.013 14.208 118.656 39.509 169.899l110.933-192.171zM745.515 448.939l-61.056 105.728h189.696c14.165-40.021 21.845-83.115 21.845-128 0-61.013-14.208-118.656-39.509-169.899l-109.909 190.379zM537.088 43.478l172.032 297.856 94.805-164.181c-6.528-7.595-13.312-14.976-20.395-22.016-64-64-150.4-105.472-246.4-111.659zM456.533-39.424c1.963-0.341 3.925-0.597 5.931-0.64 16.256-1.707 32.811-2.603 49.536-2.603 129.579 0 246.997 52.565 331.861 137.472 15.616 15.616 30.123 32.299 43.392 49.963 1.792 2.005 3.371 4.139 4.693 6.357 56.235 77.355 89.387 172.629 89.387 275.541 0 65.664-13.525 128.213-37.888 185.003-0.683 1.877-1.451 3.669-2.347 5.376-23.595 53.077-56.747 100.992-97.237 141.483-72.576 72.576-168.96 121.557-276.395 134.229-1.963 0.341-3.925 0.597-5.931 0.64-16.256 1.707-32.811 2.603-49.536 2.603-129.579 0-246.997-52.565-331.861-137.472-15.616-15.573-30.123-32.299-43.392-49.963-1.792-2.005-3.371-4.139-4.736-6.357-56.192-77.355-89.344-172.629-89.344-275.541 0-65.664 13.525-128.213 37.888-185.003 0.683-1.877 1.451-3.669 2.347-5.376 23.595-53.077 56.747-100.992 97.237-141.483 72.576-72.576 168.96-121.557 276.395-134.229zM536.661 213.334l-94.848-164.267c-77.867 14.379-147.499 52.267-201.344 106.069-17.749 17.749-33.792 37.248-47.829 58.197h221.611zM659.84 426.667l-73.899-128h-147.883l-73.899 128 73.899 128h147.883z" />
<glyph unicode="&#xe934;" glyph-name="clear" d="M810 664.667l-238-238 238-238-60-60-238 238-238-238-60 60 238 238-238 238 60 60 238-238 238 238z" />
<glyph unicode="&#xe935;" glyph-name="clear1" d="M810 664.667l-238-238 238-238-60-60-238 238-238-238-60 60 238 238-238 238 60 60 238-238 238 238z" />
<glyph unicode="&#xe936;" glyph-name="check" d="M823.168 712.832l-439.168-439.168-183.168 183.168c-16.683 16.683-43.691 16.683-60.331 0s-16.683-43.691 0-60.331l213.333-213.333c16.683-16.683 43.691-16.683 60.331 0l469.333 469.333c16.683 16.683 16.683 43.691 0 60.331s-43.691 16.683-60.331 0z" />
<glyph unicode="&#xe937;" glyph-name="check1" d="M823.168 712.832l-439.168-439.168-183.168 183.168c-16.683 16.683-43.691 16.683-60.331 0s-16.683-43.691 0-60.331l213.333-213.333c16.683-16.683 43.691-16.683 60.331 0l469.333 469.333c16.683 16.683 16.683 43.691 0 60.331s-43.691 16.683-60.331 0z" />
<glyph unicode="&#xe938;" glyph-name="perm_phone_msg" d="M512 810.667h384v-298h-256l-128-128v426zM854 276.667q18 0 30-12t12-30v-150q0-18-12-30t-30-12q-300 0-513 213t-213 513q0 18 12 30t30 12h150q18 0 30-12t12-30v-2q0-82 24-150 8-26-10-44l-94-94q40-76 123-159t159-123l94 94q14 14 30 14 6 0 14-4 72-24 152-24z" />
<glyph unicode="&#xe939;" glyph-name="perm_phone_msg1" d="M512 810.667h384v-298h-256l-128-128v426zM854 276.667q18 0 30-12t12-30v-150q0-18-12-30t-30-12q-300 0-513 213t-213 513q0 18 12 30t30 12h150q18 0 30-12t12-30v-2q0-82 24-150 8-26-10-44l-94-94q40-76 123-159t159-123l94 94q14 14 30 14 6 0 14-4 72-24 152-24z" />
<glyph unicode="&#xe93a;" glyph-name="mail_outline" d="M512 468.667l342 214h-684zM854 170.667v426l-342-212-342 212v-426h684zM854 768.667q34 0 59-26t25-60v-512q0-34-25-60t-59-26h-684q-34 0-59 26t-25 60v512q0 34 25 60t59 26h684z" />
<glyph unicode="&#xe93b;" glyph-name="mail_outline1" d="M512 468.667l342 214h-684zM854 170.667v426l-342-212-342 212v-426h684zM854 768.667q34 0 59-26t25-60v-512q0-34-25-60t-59-26h-684q-34 0-59 26t-25 60v512q0 34 25 60t59 26h684z" />
<glyph unicode="&#xe93c;" glyph-name="hearing" d="M490 554.667q0 44 32 75t76 31 75-31 31-75-31-75-75-31-76 31-32 75zM326 826.667q-112-112-112-272t112-272l-60-60q-138 138-138 332t138 332zM726 84.667q34 0 59 26t25 60h86q0-70-50-120t-120-50q-38 0-70 14-82 42-118 152-14 44-72 88-82 60-122 134-46 82-46 166 0 126 87 212t213 86 212-86 86-212h-86q0 90-61 152t-151 62-152-62-62-152q0-64 34-126 28-54 100-108 80-60 102-128 26-76 72-100 16-8 34-8z" />
<glyph unicode="&#xe93d;" glyph-name="hearing1" d="M490 554.667q0 44 32 75t76 31 75-31 31-75-31-75-75-31-76 31-32 75zM326 826.667q-112-112-112-272t112-272l-60-60q-138 138-138 332t138 332zM726 84.667q34 0 59 26t25 60h86q0-70-50-120t-120-50q-38 0-70 14-82 42-118 152-14 44-72 88-82 60-122 134-46 82-46 166 0 126 87 212t213 86 212-86 86-212h-86q0 90-61 152t-151 62-152-62-62-152q0-64 34-126 28-54 100-108 80-60 102-128 26-76 72-100 16-8 34-8z" />
<glyph unicode="&#xe93e;" glyph-name="open_in_browser" d="M512 512.667l170-172h-128v-256h-84v256h-128zM810 768.667q36 0 61-25t25-61v-512q0-34-26-60t-60-26h-170v86h170v426h-596v-426h170v-86h-170q-36 0-61 25t-25 61v512q0 36 25 61t61 25h596z" />
<glyph unicode="&#xe93f;" glyph-name="open_in_browser1" d="M512 512.667l170-172h-128v-256h-84v256h-128zM810 768.667q36 0 61-25t25-61v-512q0-34-26-60t-60-26h-170v86h170v426h-596v-426h170v-86h-170q-36 0-61 25t-25 61v512q0 36 25 61t61 25h596z" />
<glyph unicode="&#xe940;" glyph-name="x" d="M225.835 652.502l225.835-225.835-225.835-225.835c-16.683-16.683-16.683-43.691 0-60.331s43.691-16.683 60.331 0l225.835 225.835 225.835-225.835c16.683-16.683 43.691-16.683 60.331 0s16.683 43.691 0 60.331l-225.835 225.835 225.835 225.835c16.683 16.683 16.683 43.691 0 60.331s-43.691 16.683-60.331 0l-225.835-225.835-225.835 225.835c-16.683 16.683-43.691 16.683-60.331 0s-16.683-43.691 0-60.331z" />
<glyph unicode="&#xe941;" glyph-name="x1" d="M225.835 652.502l225.835-225.835-225.835-225.835c-16.683-16.683-16.683-43.691 0-60.331s43.691-16.683 60.331 0l225.835 225.835 225.835-225.835c16.683-16.683 43.691-16.683 60.331 0s16.683 43.691 0 60.331l-225.835 225.835 225.835 225.835c16.683 16.683 16.683 43.691 0 60.331s-43.691 16.683-60.331 0l-225.835-225.835-225.835 225.835c-16.683 16.683-43.691 16.683-60.331 0s-16.683-43.691 0-60.331z" />
<glyph unicode="&#xe942;" glyph-name="translate" d="M678 212.667h138l-70 186zM790 512.667l192-512h-86l-48 128h-202l-48-128h-86l192 512h86zM550 296.667l-34-88-132 132-214-212-60 60 218 214q-80 88-128 194h86q42-80 98-142 92 102 136 228h-478v86h300v84h84v-84h300v-86h-126q-20-64-66-145t-92-133l-2-2z" />
<glyph unicode="&#xe943;" glyph-name="translate1" d="M678 212.667h138l-70 186zM790 512.667l192-512h-86l-48 128h-202l-48-128h-86l192 512h86zM550 296.667l-34-88-132 132-214-212-60 60 218 214q-80 88-128 194h86q42-80 98-142 92 102 136 228h-478v86h300v84h84v-84h300v-86h-126q-20-64-66-145t-92-133l-2-2z" />
<glyph unicode="&#xe944;" glyph-name="comment" d="M768 596.667v86h-512v-86h512zM768 468.667v86h-512v-86h512zM768 340.667v86h-512v-86h512zM938 768.667v-768l-170 170h-598q-34 0-59 26t-25 60v512q0 34 25 59t59 25h684q34 0 59-25t25-59z" />
<glyph unicode="&#xe945;" glyph-name="comment1" d="M768 596.667v86h-512v-86h512zM768 468.667v86h-512v-86h512zM768 340.667v86h-512v-86h512zM938 768.667v-768l-170 170h-598q-34 0-59 26t-25 60v512q0 34 25 59t59 25h684q34 0 59-25t25-59z" />
<glyph unicode="&#xe946;" glyph-name="check11" d="M823.168 712.832l-439.168-439.168-183.168 183.168c-16.683 16.683-43.691 16.683-60.331 0s-16.683-43.691 0-60.331l213.333-213.333c16.683-16.683 43.691-16.683 60.331 0l469.333 469.333c16.683 16.683 16.683 43.691 0 60.331s-43.691 16.683-60.331 0z" />
<glyph unicode="&#xe947;" glyph-name="check111" d="M823.168 712.832l-439.168-439.168-183.168 183.168c-16.683 16.683-43.691 16.683-60.331 0s-16.683-43.691 0-60.331l213.333-213.333c16.683-16.683 43.691-16.683 60.331 0l469.333 469.333c16.683 16.683 16.683 43.691 0 60.331s-43.691 16.683-60.331 0z" />
<glyph unicode="&#xe948;" glyph-name="navigate_next" d="M426 682.667l256-256-256-256-60 60 196 196-196 196z" />
<glyph unicode="&#xe949;" glyph-name="navigate_next1" d="M426 682.667l256-256-256-256-60 60 196 196-196 196z" />
<glyph unicode="&#xe94a;" glyph-name="navigate_before" d="M658 622.667l-196-196 196-196-60-60-256 256 256 256z" />
<glyph unicode="&#xe94b;" glyph-name="navigate_before1" d="M658 622.667l-196-196 196-196-60-60-256 256 256 256z" />
<glyph unicode="&#xe94c;" glyph-name="at-sign" d="M640 426.667c0-35.371-14.293-67.285-37.504-90.496s-55.125-37.504-90.496-37.504-67.285 14.293-90.496 37.504-37.504 55.125-37.504 90.496 14.293 67.285 37.504 90.496 55.125 37.504 90.496 37.504 67.285-14.293 90.496-37.504 37.504-55.125 37.504-90.496zM671.573 285.099c5.547-7.765 11.691-15.061 18.389-21.76 30.848-30.848 73.6-50.005 120.704-50.005s89.856 19.157 120.661 50.005 50.005 73.557 50.005 120.661v42.667c0 129.579-52.608 246.997-137.472 331.861s-202.283 137.472-331.904 137.429-246.955-52.565-331.861-137.472-137.429-202.283-137.429-331.861 52.608-246.997 137.472-331.861 202.283-137.472 331.861-137.429c107.733 0 207.147 36.352 285.44 96.811 18.645 14.379 22.101 41.173 7.723 59.861s-41.173 22.101-59.861 7.723c-63.787-49.237-144.981-79.019-233.301-79.019-106.069 0-201.984 42.923-271.531 112.469s-112.469 165.376-112.469 271.445 42.923 201.984 112.469 271.531 165.461 112.469 271.488 112.469 201.984-42.923 271.531-112.469 112.512-165.461 112.512-271.488v-42.667c0-23.595-9.515-44.843-25.003-60.331s-36.736-25.003-60.331-25.003-44.843 9.515-60.331 25.003-25.003 36.736-25.003 60.331v213.333c0 23.552-19.115 42.667-42.667 42.667s-42.667-19.115-42.667-42.667c-35.627 26.752-80 42.667-128 42.667-58.88 0-112.299-23.936-150.869-62.464s-62.464-91.989-62.464-150.869 23.936-112.299 62.464-150.869 91.989-62.464 150.869-62.464 112.299 23.936 150.869 62.464c2.987 2.987 5.931 6.101 8.747 9.259z" />
<glyph unicode="&#xe94d;" glyph-name="at-sign1" d="M640 426.667c0-35.371-14.293-67.285-37.504-90.496s-55.125-37.504-90.496-37.504-67.285 14.293-90.496 37.504-37.504 55.125-37.504 90.496 14.293 67.285 37.504 90.496 55.125 37.504 90.496 37.504 67.285-14.293 90.496-37.504 37.504-55.125 37.504-90.496zM671.573 285.099c5.547-7.765 11.691-15.061 18.389-21.76 30.848-30.848 73.6-50.005 120.704-50.005s89.856 19.157 120.661 50.005 50.005 73.557 50.005 120.661v42.667c0 129.579-52.608 246.997-137.472 331.861s-202.283 137.472-331.904 137.429-246.955-52.565-331.861-137.472-137.429-202.283-137.429-331.861 52.608-246.997 137.472-331.861 202.283-137.472 331.861-137.429c107.733 0 207.147 36.352 285.44 96.811 18.645 14.379 22.101 41.173 7.723 59.861s-41.173 22.101-59.861 7.723c-63.787-49.237-144.981-79.019-233.301-79.019-106.069 0-201.984 42.923-271.531 112.469s-112.469 165.376-112.469 271.445 42.923 201.984 112.469 271.531 165.461 112.469 271.488 112.469 201.984-42.923 271.531-112.469 112.512-165.461 112.512-271.488v-42.667c0-23.595-9.515-44.843-25.003-60.331s-36.736-25.003-60.331-25.003-44.843 9.515-60.331 25.003-25.003 36.736-25.003 60.331v213.333c0 23.552-19.115 42.667-42.667 42.667s-42.667-19.115-42.667-42.667c-35.627 26.752-80 42.667-128 42.667-58.88 0-112.299-23.936-150.869-62.464s-62.464-91.989-62.464-150.869 23.936-112.299 62.464-150.869 91.989-62.464 150.869-62.464 112.299 23.936 150.869 62.464c2.987 2.987 5.931 6.101 8.747 9.259z" />
<glyph unicode="&#xe94e;" glyph-name="search1111" d="M684.416 262.144c-1.451-1.109-2.859-2.347-4.224-3.712s-2.56-2.731-3.712-4.224c-53.675-51.755-126.677-83.541-207.147-83.541-82.475 0-157.099 33.365-211.2 87.467s-87.467 128.725-87.467 211.2 33.365 157.099 87.467 211.2 128.725 87.467 211.2 87.467 157.099-33.365 211.2-87.467 87.467-128.725 87.467-211.2c0-80.469-31.787-153.472-83.584-207.189zM926.165 72.832l-156.8 156.8c52.523 65.707 83.968 149.035 83.968 239.701 0 106.027-43.008 202.069-112.469 271.531s-165.504 112.469-271.531 112.469-202.069-43.008-271.531-112.469-112.469-165.504-112.469-271.531 43.008-202.069 112.469-271.531 165.504-112.469 271.531-112.469c90.667 0 173.995 31.445 239.701 83.968l156.8-156.8c16.683-16.683 43.691-16.683 60.331 0s16.683 43.691 0 60.331z" />
<glyph unicode="&#xe94f;" glyph-name="search12" d="M684.416 262.144c-1.451-1.109-2.859-2.347-4.224-3.712s-2.56-2.731-3.712-4.224c-53.675-51.755-126.677-83.541-207.147-83.541-82.475 0-157.099 33.365-211.2 87.467s-87.467 128.725-87.467 211.2 33.365 157.099 87.467 211.2 128.725 87.467 211.2 87.467 157.099-33.365 211.2-87.467 87.467-128.725 87.467-211.2c0-80.469-31.787-153.472-83.584-207.189zM926.165 72.832l-156.8 156.8c52.523 65.707 83.968 149.035 83.968 239.701 0 106.027-43.008 202.069-112.469 271.531s-165.504 112.469-271.531 112.469-202.069-43.008-271.531-112.469-112.469-165.504-112.469-271.531 43.008-202.069 112.469-271.531 165.504-112.469 271.531-112.469c90.667 0 173.995 31.445 239.701 83.968l156.8-156.8c16.683-16.683 43.691-16.683 60.331 0s16.683 43.691 0 60.331z" />
<glyph unicode="&#xe950;" glyph-name="x-circle" d="M981.333 426.667c0 129.579-52.565 246.997-137.472 331.861s-202.283 137.472-331.861 137.472-246.997-52.565-331.861-137.472-137.472-202.283-137.472-331.861 52.565-246.997 137.472-331.861 202.283-137.472 331.861-137.472 246.997 52.565 331.861 137.472 137.472 202.283 137.472 331.861zM896 426.667c0-106.069-42.923-201.984-112.469-271.531s-165.461-112.469-271.531-112.469-201.984 42.923-271.531 112.469-112.469 165.461-112.469 271.531 42.923 201.984 112.469 271.531 165.461 112.469 271.531 112.469 201.984-42.923 271.531-112.469 112.469-165.461 112.469-271.531zM353.835 524.502l97.835-97.835-97.835-97.835c-16.683-16.683-16.683-43.691 0-60.331s43.691-16.683 60.331 0l97.835 97.835 97.835-97.835c16.683-16.683 43.691-16.683 60.331 0s16.683 43.691 0 60.331l-97.835 97.835 97.835 97.835c16.683 16.683 16.683 43.691 0 60.331s-43.691 16.683-60.331 0l-97.835-97.835-97.835 97.835c-16.683 16.683-43.691 16.683-60.331 0s-16.683-43.691 0-60.331z" />
<glyph unicode="&#xe951;" glyph-name="x-circle1" d="M981.333 426.667c0 129.579-52.565 246.997-137.472 331.861s-202.283 137.472-331.861 137.472-246.997-52.565-331.861-137.472-137.472-202.283-137.472-331.861 52.565-246.997 137.472-331.861 202.283-137.472 331.861-137.472 246.997 52.565 331.861 137.472 137.472 202.283 137.472 331.861zM896 426.667c0-106.069-42.923-201.984-112.469-271.531s-165.461-112.469-271.531-112.469-201.984 42.923-271.531 112.469-112.469 165.461-112.469 271.531 42.923 201.984 112.469 271.531 165.461 112.469 271.531 112.469 201.984-42.923 271.531-112.469 112.469-165.461 112.469-271.531zM353.835 524.502l97.835-97.835-97.835-97.835c-16.683-16.683-16.683-43.691 0-60.331s43.691-16.683 60.331 0l97.835 97.835 97.835-97.835c16.683-16.683 43.691-16.683 60.331 0s16.683 43.691 0 60.331l-97.835 97.835 97.835 97.835c16.683 16.683 16.683 43.691 0 60.331s-43.691 16.683-60.331 0l-97.835-97.835-97.835 97.835c-16.683 16.683-43.691 16.683-60.331 0s-16.683-43.691 0-60.331z" />
<glyph unicode="&#xe952;" glyph-name="info_outline" d="M470 554.667v86h84v-86h-84zM512 84.667q140 0 241 101t101 241-101 241-241 101-241-101-101-241 101-241 241-101zM512 852.667q176 0 301-125t125-301-125-301-301-125-301 125-125 301 125 301 301 125zM470 212.667v256h84v-256h-84z" />
<glyph unicode="&#xe953;" glyph-name="info_outline1" d="M470 554.667v86h84v-86h-84zM512 84.667q140 0 241 101t101 241-101 241-241 101-241-101-101-241 101-241 241-101zM512 852.667q176 0 301-125t125-301-125-301-301-125-301 125-125 301 125 301 301 125zM470 212.667v256h84v-256h-84z" />
<glyph unicode="&#xe954;" glyph-name="info11" d="M554 554.667v86h-84v-86h84zM554 212.667v256h-84v-256h84zM512 852.667q176 0 301-125t125-301-125-301-301-125-301 125-125 301 125 301 301 125z" />
<glyph unicode="&#xe955;" glyph-name="info111" d="M554 554.667v86h-84v-86h84zM554 212.667v256h-84v-256h84zM512 852.667q176 0 301-125t125-301-125-301-301-125-301 125-125 301 125 301 301 125z" />
<glyph unicode="&#xe956;" glyph-name="arrow_downward" d="M854 426.667l-342-342-342 342 62 60 238-238v520h84v-520l240 238z" />
<glyph unicode="&#xe957;" glyph-name="arrow_downward1" d="M854 426.667l-342-342-342 342 62 60 238-238v520h84v-520l240 238z" />
<glyph unicode="&#xe958;" glyph-name="access_time" d="M534 640.667v-224l192-114-32-54-224 136v256h64zM512 84.667q140 0 241 101t101 241-101 241-241 101-241-101-101-241 101-241 241-101zM512 852.667q176 0 301-125t125-301-125-301-301-125-301 125-125 301 125 301 301 125z" />
<glyph unicode="&#xe959;" glyph-name="access_time1" d="M534 640.667v-224l192-114-32-54-224 136v256h64zM512 84.667q140 0 241 101t101 241-101 241-241 101-241-101-101-241 101-241 241-101zM512 852.667q176 0 301-125t125-301-125-301-301-125-301 125-125 301 125 301 301 125z" />
<glyph unicode="&#xe95a;" glyph-name="help_outline" d="M512 682.667q70 0 120-50t50-120q0-54-64-111t-64-103h-84q0 46 20 79t44 48 44 37 20 50q0 34-26 59t-60 25-60-25-26-59h-84q0 70 50 120t120 50zM512 84.667q140 0 241 101t101 241-101 241-241 101-241-101-101-241 101-241 241-101zM512 852.667q176 0 301-125t125-301-125-301-301-125-301 125-125 301 125 301 301 125zM470 170.667v86h84v-86h-84z" />
<glyph unicode="&#xe95b;" glyph-name="help_outline1" d="M512 682.667q70 0 120-50t50-120q0-54-64-111t-64-103h-84q0 46 20 79t44 48 44 37 20 50q0 34-26 59t-60 25-60-25-26-59h-84q0 70 50 120t120 50zM512 84.667q140 0 241 101t101 241-101 241-241 101-241-101-101-241 101-241 241-101zM512 852.667q176 0 301-125t125-301-125-301-301-125-301 125-125 301 125 301 301 125zM470 170.667v86h84v-86h-84z" />
<glyph unicode="&#xe95c;" glyph-name="external-link" d="M725.333 384v-256c0-11.776-4.736-22.4-12.501-30.165s-18.389-12.501-30.165-12.501h-469.333c-11.776 0-22.4 4.736-30.165 12.501s-12.501 18.389-12.501 30.165v469.333c0 11.776 4.736 22.4 12.501 30.165s18.389 12.501 30.165 12.501h256c23.552 0 42.667 19.115 42.667 42.667s-19.115 42.667-42.667 42.667h-256c-35.328 0-67.413-14.379-90.496-37.504s-37.504-55.168-37.504-90.496v-469.333c0-35.328 14.379-67.413 37.504-90.496s55.168-37.504 90.496-37.504h469.333c35.328 0 67.413 14.379 90.496 37.504s37.504 55.168 37.504 90.496v256c0 23.552-19.115 42.667-42.667 42.667s-42.667-19.115-42.667-42.667zM456.832 311.168l396.501 396.501v-153.003c0-23.552 19.115-42.667 42.667-42.667s42.667 19.115 42.667 42.667v256c0 5.803-1.152 11.307-3.243 16.341s-5.163 9.728-9.216 13.781c-0.043 0.043-0.043 0.043-0.085 0.085-3.925 3.925-8.619 7.083-13.781 9.216-5.035 2.091-10.539 3.243-16.341 3.243h-256c-23.552 0-42.667-19.115-42.667-42.667s19.115-42.667 42.667-42.667h153.003l-396.501-396.501c-16.683-16.683-16.683-43.691 0-60.331s43.691-16.683 60.331 0z" />
<glyph unicode="&#xe95d;" glyph-name="external-link1" d="M725.333 384v-256c0-11.776-4.736-22.4-12.501-30.165s-18.389-12.501-30.165-12.501h-469.333c-11.776 0-22.4 4.736-30.165 12.501s-12.501 18.389-12.501 30.165v469.333c0 11.776 4.736 22.4 12.501 30.165s18.389 12.501 30.165 12.501h256c23.552 0 42.667 19.115 42.667 42.667s-19.115 42.667-42.667 42.667h-256c-35.328 0-67.413-14.379-90.496-37.504s-37.504-55.168-37.504-90.496v-469.333c0-35.328 14.379-67.413 37.504-90.496s55.168-37.504 90.496-37.504h469.333c35.328 0 67.413 14.379 90.496 37.504s37.504 55.168 37.504 90.496v256c0 23.552-19.115 42.667-42.667 42.667s-42.667-19.115-42.667-42.667zM456.832 311.168l396.501 396.501v-153.003c0-23.552 19.115-42.667 42.667-42.667s42.667 19.115 42.667 42.667v256c0 5.803-1.152 11.307-3.243 16.341s-5.163 9.728-9.216 13.781c-0.043 0.043-0.043 0.043-0.085 0.085-3.925 3.925-8.619 7.083-13.781 9.216-5.035 2.091-10.539 3.243-16.341 3.243h-256c-23.552 0-42.667-19.115-42.667-42.667s19.115-42.667 42.667-42.667h153.003l-396.501-396.501c-16.683-16.683-16.683-43.691 0-60.331s43.691-16.683 60.331 0z" />
<glyph unicode="&#xe95e;" glyph-name="folder" d="M981.333 128v469.333c0 35.328-14.379 67.413-37.504 90.496s-55.168 37.504-90.496 37.504h-361.173l-72.661 109.013c-7.765 11.52-20.736 18.987-35.499 18.987h-213.333c-35.328 0-67.413-14.379-90.496-37.504s-37.504-55.168-37.504-90.496v-597.333c0-35.328 14.379-67.413 37.504-90.496s55.168-37.504 90.496-37.504h682.667c35.328 0 67.413 14.379 90.496 37.504s37.504 55.168 37.504 90.496zM896 128c0-11.776-4.736-22.4-12.501-30.165s-18.389-12.501-30.165-12.501h-682.667c-11.776 0-22.4 4.736-30.165 12.501s-12.501 18.389-12.501 30.165v597.333c0 11.776 4.736 22.4 12.501 30.165s18.389 12.501 30.165 12.501h190.507l72.661-109.013c8.192-12.245 21.589-18.901 35.499-18.987h384c11.776 0 22.4-4.736 30.165-12.501s12.501-18.389 12.501-30.165z" />
<glyph unicode="&#xe95f;" glyph-name="folder1" d="M981.333 128v469.333c0 35.328-14.379 67.413-37.504 90.496s-55.168 37.504-90.496 37.504h-361.173l-72.661 109.013c-7.765 11.52-20.736 18.987-35.499 18.987h-213.333c-35.328 0-67.413-14.379-90.496-37.504s-37.504-55.168-37.504-90.496v-597.333c0-35.328 14.379-67.413 37.504-90.496s55.168-37.504 90.496-37.504h682.667c35.328 0 67.413 14.379 90.496 37.504s37.504 55.168 37.504 90.496zM896 128c0-11.776-4.736-22.4-12.501-30.165s-18.389-12.501-30.165-12.501h-682.667c-11.776 0-22.4 4.736-30.165 12.501s-12.501 18.389-12.501 30.165v597.333c0 11.776 4.736 22.4 12.501 30.165s18.389 12.501 30.165 12.501h190.507l72.661-109.013c8.192-12.245 21.589-18.901 35.499-18.987h384c11.776 0 22.4-4.736 30.165-12.501s12.501-18.389 12.501-30.165z" />
<glyph unicode="&#xe960;" glyph-name="link" d="M392.491 358.443c42.325-56.619 103.68-90.709 168.448-100.053s133.248 6.059 189.867 48.384c10.197 7.637 19.84 16 27.947 24.235l127.787 127.787c49.621 51.371 73.472 117.376 72.363 182.827s-27.264 130.603-78.123 179.669c-50.005 48.299-114.688 72.192-179.157 71.808-63.659-0.341-127.317-24.363-176.512-71.808l-73.856-73.429c-16.725-16.597-16.811-43.648-0.171-60.331s43.648-16.811 60.331-0.171l72.917 72.491c32.853 31.659 75.221 47.659 117.76 47.915 43.051 0.256 86.016-15.659 119.381-47.872 33.92-32.768 51.328-76.075 52.096-119.808s-15.147-87.637-47.36-121.003l-128.213-128.213c-4.864-4.949-11.221-10.539-18.261-15.787-37.76-28.245-83.285-38.485-126.592-32.256s-84.096 28.928-112.299 66.688c-14.123 18.859-40.832 22.741-59.733 8.619s-22.741-40.832-8.619-59.733zM631.509 494.891c-42.325 56.619-103.68 90.709-168.448 100.053s-133.291-6.059-189.909-48.384c-10.197-7.637-19.797-16-27.947-24.235l-127.787-127.787c-49.621-51.371-73.472-117.376-72.363-182.827s27.264-130.603 78.123-179.669c50.005-48.299 114.688-72.192 179.157-71.808 63.659 0.341 127.317 24.363 176.512 71.808l73.515 73.515c16.683 16.683 16.683 43.691 0 60.331s-43.691 16.683-60.331 0l-72.363-72.448c-32.853-31.659-75.221-47.659-117.76-47.915-43.051-0.256-86.016 15.659-119.381 47.872-33.92 32.768-51.328 76.075-52.096 119.808s15.147 87.637 47.36 121.003l128.213 128.213c4.864 4.949 11.221 10.539 18.261 15.787 37.76 28.245 83.285 38.485 126.592 32.256s84.096-28.928 112.299-66.688c14.123-18.859 40.832-22.741 59.733-8.619s22.741 40.832 8.619 59.733z" />
<glyph unicode="&#xe961;" glyph-name="link1" d="M392.491 358.443c42.325-56.619 103.68-90.709 168.448-100.053s133.248 6.059 189.867 48.384c10.197 7.637 19.84 16 27.947 24.235l127.787 127.787c49.621 51.371 73.472 117.376 72.363 182.827s-27.264 130.603-78.123 179.669c-50.005 48.299-114.688 72.192-179.157 71.808-63.659-0.341-127.317-24.363-176.512-71.808l-73.856-73.429c-16.725-16.597-16.811-43.648-0.171-60.331s43.648-16.811 60.331-0.171l72.917 72.491c32.853 31.659 75.221 47.659 117.76 47.915 43.051 0.256 86.016-15.659 119.381-47.872 33.92-32.768 51.328-76.075 52.096-119.808s-15.147-87.637-47.36-121.003l-128.213-128.213c-4.864-4.949-11.221-10.539-18.261-15.787-37.76-28.245-83.285-38.485-126.592-32.256s-84.096 28.928-112.299 66.688c-14.123 18.859-40.832 22.741-59.733 8.619s-22.741-40.832-8.619-59.733zM631.509 494.891c-42.325 56.619-103.68 90.709-168.448 100.053s-133.291-6.059-189.909-48.384c-10.197-7.637-19.797-16-27.947-24.235l-127.787-127.787c-49.621-51.371-73.472-117.376-72.363-182.827s27.264-130.603 78.123-179.669c50.005-48.299 114.688-72.192 179.157-71.808 63.659 0.341 127.317 24.363 176.512 71.808l73.515 73.515c16.683 16.683 16.683 43.691 0 60.331s-43.691 16.683-60.331 0l-72.363-72.448c-32.853-31.659-75.221-47.659-117.76-47.915-43.051-0.256-86.016 15.659-119.381 47.872-33.92 32.768-51.328 76.075-52.096 119.808s15.147 87.637 47.36 121.003l128.213 128.213c4.864 4.949 11.221 10.539 18.261 15.787 37.76 28.245 83.285 38.485 126.592 32.256s84.096-28.928 112.299-66.688c14.123-18.859 40.832-22.741 59.733-8.619s22.741 40.832 8.619 59.733z" />
<glyph unicode="&#xe962;" glyph-name="corner-left-up" d="M853.333 128h-298.667c-35.371 0-67.285 14.293-90.496 37.504s-37.504 55.125-37.504 90.496v409.003l140.501-140.501c16.683-16.683 43.691-16.683 60.331 0s16.683 43.691 0 60.331l-213.333 213.333c-4.096 4.096-8.789 7.168-13.824 9.259s-10.539 3.243-16.341 3.243-11.307-1.152-16.341-3.243c-5.035-2.091-9.728-5.163-13.824-9.259l-213.333-213.333c-16.683-16.683-16.683-43.691 0-60.331s43.691-16.683 60.331 0l140.501 140.501v-409.003c0-58.88 23.936-112.299 62.464-150.869s91.989-62.464 150.869-62.464h298.667c23.552 0 42.667 19.115 42.667 42.667s-19.115 42.667-42.667 42.667z" />
<glyph unicode="&#xe963;" glyph-name="corner-left-up1" d="M853.333 128h-298.667c-35.371 0-67.285 14.293-90.496 37.504s-37.504 55.125-37.504 90.496v409.003l140.501-140.501c16.683-16.683 43.691-16.683 60.331 0s16.683 43.691 0 60.331l-213.333 213.333c-4.096 4.096-8.789 7.168-13.824 9.259s-10.539 3.243-16.341 3.243-11.307-1.152-16.341-3.243c-5.035-2.091-9.728-5.163-13.824-9.259l-213.333-213.333c-16.683-16.683-16.683-43.691 0-60.331s43.691-16.683 60.331 0l140.501 140.501v-409.003c0-58.88 23.936-112.299 62.464-150.869s91.989-62.464 150.869-62.464h298.667c23.552 0 42.667 19.115 42.667 42.667s-19.115 42.667-42.667 42.667z" />
<glyph unicode="&#xe964;" glyph-name="build" d="M968 128.667q14-8 13-27t-17-33l-98-98q-30-30-60 0l-388 388q-72-30-153-13t-141 77q-64 64-80 152t24 164l188-184 128 128-184 184q76 36 164 22t152-78q60-60 77-141t-13-153z" />
<glyph unicode="&#xe965;" glyph-name="build1" d="M968 128.667q14-8 13-27t-17-33l-98-98q-30-30-60 0l-388 388q-72-30-153-13t-141 77q-64 64-80 152t24 164l188-184 128 128-184 184q76 36 164 22t152-78q60-60 77-141t-13-153z" />
<glyph unicode="&#xe966;" glyph-name="file-text" d="M597.333 896h-341.333c-35.328 0-67.413-14.379-90.496-37.504s-37.504-55.168-37.504-90.496v-682.667c0-35.328 14.379-67.413 37.504-90.496s55.168-37.504 90.496-37.504h512c35.328 0 67.413 14.379 90.496 37.504s37.504 55.168 37.504 90.496v512c0 11.776-4.779 22.443-12.501 30.165l-256 256c-4.096 4.096-8.789 7.168-13.824 9.259-5.205 2.176-10.795 3.243-16.341 3.243zM750.336 640h-110.336v110.336zM554.667 810.667v-213.333c0-23.552 19.115-42.667 42.667-42.667h213.333v-469.333c0-11.776-4.736-22.4-12.501-30.165s-18.389-12.501-30.165-12.501h-512c-11.776 0-22.4 4.736-30.165 12.501s-12.501 18.389-12.501 30.165v682.667c0 11.776 4.736 22.4 12.501 30.165s18.389 12.501 30.165 12.501zM682.667 426.667h-341.333c-23.552 0-42.667-19.115-42.667-42.667s19.115-42.667 42.667-42.667h341.333c23.552 0 42.667 19.115 42.667 42.667s-19.115 42.667-42.667 42.667zM682.667 256h-341.333c-23.552 0-42.667-19.115-42.667-42.667s19.115-42.667 42.667-42.667h341.333c23.552 0 42.667 19.115 42.667 42.667s-19.115 42.667-42.667 42.667zM426.667 597.334h-85.333c-23.552 0-42.667-19.115-42.667-42.667s19.115-42.667 42.667-42.667h85.333c23.552 0 42.667 19.115 42.667 42.667s-19.115 42.667-42.667 42.667z" />
<glyph unicode="&#xe967;" glyph-name="file-text1" d="M597.333 896h-341.333c-35.328 0-67.413-14.379-90.496-37.504s-37.504-55.168-37.504-90.496v-682.667c0-35.328 14.379-67.413 37.504-90.496s55.168-37.504 90.496-37.504h512c35.328 0 67.413 14.379 90.496 37.504s37.504 55.168 37.504 90.496v512c0 11.776-4.779 22.443-12.501 30.165l-256 256c-4.096 4.096-8.789 7.168-13.824 9.259-5.205 2.176-10.795 3.243-16.341 3.243zM750.336 640h-110.336v110.336zM554.667 810.667v-213.333c0-23.552 19.115-42.667 42.667-42.667h213.333v-469.333c0-11.776-4.736-22.4-12.501-30.165s-18.389-12.501-30.165-12.501h-512c-11.776 0-22.4 4.736-30.165 12.501s-12.501 18.389-12.501 30.165v682.667c0 11.776 4.736 22.4 12.501 30.165s18.389 12.501 30.165 12.501zM682.667 426.667h-341.333c-23.552 0-42.667-19.115-42.667-42.667s19.115-42.667 42.667-42.667h341.333c23.552 0 42.667 19.115 42.667 42.667s-19.115 42.667-42.667 42.667zM682.667 256h-341.333c-23.552 0-42.667-19.115-42.667-42.667s19.115-42.667 42.667-42.667h341.333c23.552 0 42.667 19.115 42.667 42.667s-19.115 42.667-42.667 42.667zM426.667 597.334h-85.333c-23.552 0-42.667-19.115-42.667-42.667s19.115-42.667 42.667-42.667h85.333c23.552 0 42.667 19.115 42.667 42.667s-19.115 42.667-42.667 42.667z" />
<glyph unicode="&#xe968;" glyph-name="edit" d="M469.333 810.667h-298.667c-35.328 0-67.413-14.379-90.496-37.504s-37.504-55.168-37.504-90.496v-597.333c0-35.328 14.379-67.413 37.504-90.496s55.168-37.504 90.496-37.504h597.333c35.328 0 67.413 14.379 90.496 37.504s37.504 55.168 37.504 90.496v298.667c0 23.552-19.115 42.667-42.667 42.667s-42.667-19.115-42.667-42.667v-298.667c0-11.776-4.736-22.4-12.501-30.165s-18.389-12.501-30.165-12.501h-597.333c-11.776 0-22.4 4.736-30.165 12.501s-12.501 18.389-12.501 30.165v597.333c0 11.776 4.736 22.4 12.501 30.165s18.389 12.501 30.165 12.501h298.667c23.552 0 42.667 19.115 42.667 42.667s-19.115 42.667-42.667 42.667zM759.168 862.166l-405.333-405.333c-5.205-5.163-9.259-11.947-11.221-19.84l-42.667-170.667c-1.664-6.4-1.792-13.568 0-20.693 5.717-22.869 28.885-36.779 51.755-31.061l170.667 42.667c7.125 1.749 14.080 5.504 19.84 11.221l405.333 405.333c25.984 25.984 38.997 60.16 38.997 94.165s-13.013 68.181-38.997 94.165-60.203 39.040-94.208 39.040-68.181-13.013-94.165-38.997zM819.499 801.835c9.344 9.344 21.504 13.995 33.835 13.995s24.491-4.651 33.835-13.995 13.995-21.504 13.995-33.835-4.651-24.491-13.995-33.835l-396.971-396.971-90.197-22.571 22.571 90.197z" />
<glyph unicode="&#xe969;" glyph-name="edit1" d="M469.333 810.667h-298.667c-35.328 0-67.413-14.379-90.496-37.504s-37.504-55.168-37.504-90.496v-597.333c0-35.328 14.379-67.413 37.504-90.496s55.168-37.504 90.496-37.504h597.333c35.328 0 67.413 14.379 90.496 37.504s37.504 55.168 37.504 90.496v298.667c0 23.552-19.115 42.667-42.667 42.667s-42.667-19.115-42.667-42.667v-298.667c0-11.776-4.736-22.4-12.501-30.165s-18.389-12.501-30.165-12.501h-597.333c-11.776 0-22.4 4.736-30.165 12.501s-12.501 18.389-12.501 30.165v597.333c0 11.776 4.736 22.4 12.501 30.165s18.389 12.501 30.165 12.501h298.667c23.552 0 42.667 19.115 42.667 42.667s-19.115 42.667-42.667 42.667zM759.168 862.166l-405.333-405.333c-5.205-5.163-9.259-11.947-11.221-19.84l-42.667-170.667c-1.664-6.4-1.792-13.568 0-20.693 5.717-22.869 28.885-36.779 51.755-31.061l170.667 42.667c7.125 1.749 14.080 5.504 19.84 11.221l405.333 405.333c25.984 25.984 38.997 60.16 38.997 94.165s-13.013 68.181-38.997 94.165-60.203 39.040-94.208 39.040-68.181-13.013-94.165-38.997zM819.499 801.835c9.344 9.344 21.504 13.995 33.835 13.995s24.491-4.651 33.835-13.995 13.995-21.504 13.995-33.835-4.651-24.491-13.995-33.835l-396.971-396.971-90.197-22.571 22.571 90.197z" />
<glyph unicode="&#xe96a;" glyph-name="library_books" d="M810 640.667v84h-426v-84h426zM640 298.667v86h-256v-86h256zM810 468.667v86h-426v-86h426zM854 852.667q34 0 59-25t25-59v-512q0-34-25-60t-59-26h-512q-34 0-60 26t-26 60v512q0 34 26 59t60 25h512zM170 682.667v-598h598v-84h-598q-34 0-59 25t-25 59v598h84z" />
<glyph unicode="&#xe96b;" glyph-name="library_books1" d="M810 640.667v84h-426v-84h426zM640 298.667v86h-256v-86h256zM810 468.667v86h-426v-86h426zM854 852.667q34 0 59-25t25-59v-512q0-34-25-60t-59-26h-512q-34 0-60 26t-26 60v512q0 34 26 59t60 25h512zM170 682.667v-598h598v-84h-598q-34 0-59 25t-25 59v598h84z" />
<glyph unicode="&#xe96c;" glyph-name="blur_circular" d="M598 384.667q18 0 30-13t12-31-12-30-30-12-31 12-13 30 13 31 31 13zM598 234.667q20 0 20-22 0-20-20-20-22 0-22 20 0 22 22 22zM512 84.667q140 0 241 101t101 241-101 241-241 101-241-101-101-241 101-241 241-101zM512 852.667q176 0 301-125t125-301-125-301-301-125-301 125-125 301 125 301 301 125zM726 532.667q20 0 20-20 0-22-20-22-22 0-22 22 0 20 22 20zM726 362.667q20 0 20-22 0-20-20-20-22 0-22 20 0 22 22 22zM598 618.667q-22 0-22 22 0 20 22 20 20 0 20-20 0-22-20-22zM598 554.667q18 0 30-12t12-30-12-31-30-13-31 13-13 31 13 30 31 12zM426 618.667q-20 0-20 22 0 20 20 20 22 0 22-20 0-22-22-22zM298 362.667q22 0 22-22 0-20-22-20-20 0-20 20 0 22 20 22zM426 234.667q22 0 22-22 0-20-22-20-20 0-20 20 0 22 20 22zM298 532.667q22 0 22-20 0-22-22-22-20 0-20 22 0 20 20 20zM426 384.667q18 0 31-13t13-31-13-30-31-12-30 12-12 30 12 31 30 13zM426 554.667q18 0 31-12t13-30-13-31-31-13-30 13-12 31 12 30 30 12z" />
<glyph unicode="&#xe96d;" glyph-name="blur_circular1" d="M598 384.667q18 0 30-13t12-31-12-30-30-12-31 12-13 30 13 31 31 13zM598 234.667q20 0 20-22 0-20-20-20-22 0-22 20 0 22 22 22zM512 84.667q140 0 241 101t101 241-101 241-241 101-241-101-101-241 101-241 241-101zM512 852.667q176 0 301-125t125-301-125-301-301-125-301 125-125 301 125 301 301 125zM726 532.667q20 0 20-20 0-22-20-22-22 0-22 22 0 20 22 20zM726 362.667q20 0 20-22 0-20-20-20-22 0-22 20 0 22 22 22zM598 618.667q-22 0-22 22 0 20 22 20 20 0 20-20 0-22-20-22zM598 554.667q18 0 30-12t12-30-12-31-30-13-31 13-13 31 13 30 31 12zM426 618.667q-20 0-20 22 0 20 20 20 22 0 22-20 0-22-22-22zM298 362.667q22 0 22-22 0-20-22-20-20 0-20 20 0 22 20 22zM426 234.667q22 0 22-22 0-20-22-20-20 0-20 20 0 22 20 22zM298 532.667q22 0 22-20 0-22-22-22-20 0-20 22 0 20 20 20zM426 384.667q18 0 31-13t13-31-13-30-31-12-30 12-12 30 12 31 30 13zM426 554.667q18 0 31-12t13-30-13-31-31-13-30 13-12 31 12 30 30 12z" />
<glyph unicode="&#xe96e;" glyph-name="home1" d="M101.803 588.331c-10.069-7.851-16.469-20.011-16.469-33.664v-469.333c0-35.328 14.379-67.413 37.504-90.496s55.168-37.504 90.496-37.504h597.333c35.328 0 67.413 14.379 90.496 37.504s37.504 55.168 37.504 90.496v469.333c-0.043 12.8-5.717 25.301-16.469 33.664l-384 298.667c-15.275 11.733-36.736 12.16-52.395 0zM682.667 42.667v384c0 23.552-19.115 42.667-42.667 42.667h-256c-23.552 0-42.667-19.115-42.667-42.667v-384h-128c-11.776 0-22.4 4.736-30.165 12.501s-12.501 18.389-12.501 30.165v448.469l341.333 265.472 341.333-265.472v-448.469c0-11.776-4.736-22.4-12.501-30.165s-18.389-12.501-30.165-12.501zM426.667 42.667v341.333h170.667v-341.333z" />
<glyph unicode="&#xe96f;" glyph-name="home11" d="M101.803 588.331c-10.069-7.851-16.469-20.011-16.469-33.664v-469.333c0-35.328 14.379-67.413 37.504-90.496s55.168-37.504 90.496-37.504h597.333c35.328 0 67.413 14.379 90.496 37.504s37.504 55.168 37.504 90.496v469.333c-0.043 12.8-5.717 25.301-16.469 33.664l-384 298.667c-15.275 11.733-36.736 12.16-52.395 0zM682.667 42.667v384c0 23.552-19.115 42.667-42.667 42.667h-256c-23.552 0-42.667-19.115-42.667-42.667v-384h-128c-11.776 0-22.4 4.736-30.165 12.501s-12.501 18.389-12.501 30.165v448.469l341.333 265.472 341.333-265.472v-448.469c0-11.776-4.736-22.4-12.501-30.165s-18.389-12.501-30.165-12.501zM426.667 42.667v341.333h170.667v-341.333z" />
<glyph unicode="&#xe970;" glyph-name="home21" d="M426 84.667h-212v342h-128l426 384 426-384h-128v-342h-212v256h-172v-256z" />
<glyph unicode="&#xe971;" glyph-name="home22" d="M426 84.667h-212v342h-128l426 384 426-384h-128v-342h-212v256h-172v-256z" />
<glyph unicode="&#xe972;" glyph-name="profile" d="M864 960h-768c-52.8 0-96-43.2-96-96v-832c0-52.8 43.2-96 96-96h768c52.8 0 96 43.2 96 96v832c0 52.8-43.2 96-96 96zM832 64h-704v768h704v-768zM256 384h448v-64h-448zM256 256h448v-64h-448zM320 672c0 53.019 42.981 96 96 96s96-42.981 96-96c0-53.019-42.981-96-96-96s-96 42.981-96 96zM480 576h-128c-52.8 0-96-28.8-96-64v-64h320v64c0 35.2-43.2 64-96 64z" />
<glyph unicode="&#xe973;" glyph-name="profile1" d="M864 960h-768c-52.8 0-96-43.2-96-96v-832c0-52.8 43.2-96 96-96h768c52.8 0 96 43.2 96 96v832c0 52.8-43.2 96-96 96zM832 64h-704v768h704v-768zM256 384h448v-64h-448zM256 256h448v-64h-448zM320 672c0 53.019 42.981 96 96 96s96-42.981 96-96c0-53.019-42.981-96-96-96s-96 42.981-96 96zM480 576h-128c-52.8 0-96-28.8-96-64v-64h320v64c0 35.2-43.2 64-96 64z" />
<glyph unicode="&#xe974;" glyph-name="map" d="M0 768l320 128v-768l-320-128zM384 928l320-192v-736l-320 160zM768 736l256 192v-768l-256-192z" />
<glyph unicode="&#xe975;" glyph-name="map1" d="M0 768l320 128v-768l-320-128zM384 928l320-192v-736l-320 160zM768 736l256 192v-768l-256-192z" />
<glyph unicode="&#xe976;" glyph-name="map2" d="M672 768l-320 128-352-128v-768l352 128 320-128 352 128v768l-352-128zM384 814.27l256-102.4v-630.138l-256 102.398v630.14zM64 723.172l256 93.090v-631.8l-256-93.088v631.798zM960 172.828l-256-93.092v631.8l256 93.090v-631.798z" />
<glyph unicode="&#xe977;" glyph-name="map21" d="M672 768l-320 128-352-128v-768l352 128 320-128 352 128v768l-352-128zM384 814.27l256-102.4v-630.138l-256 102.398v630.14zM64 723.172l256 93.090v-631.8l-256-93.088v631.798zM960 172.828l-256-93.092v631.8l256 93.090v-631.798z" />
<glyph unicode="&#xe978;" glyph-name="admin_panel_settings" d="M726 468.667q10 0 21-1t21-3v206l-320 140-320-140v-210q0-72 24-140t67-125 102-97 127-56q18 4 35 10t33 14q-22 30-34 68t-12 78q0 72 34 130t92 92 130 34zM726 384.667q-48 0-87-23t-62-62-23-87q0-46 23-85t62-62 87-23q46 0 85 23t62 62 23 85q0 48-23 87t-62 62-85 23zM726 324.667q20 0 34-14t14-34q0-18-15-33t-33-15q-20 0-34 15t-14 33q0 20 14 34t34 14zM726 96.667q-30 0-55 13t-41 37q0 14 18 25t40 16 38 5q14 0 37-5t40-16 17-25q-16-24-40-37t-54-13z" />
<glyph unicode="&#xe979;" glyph-name="admin_panel_settings1" d="M726 468.667q10 0 21-1t21-3v206l-320 140-320-140v-210q0-72 24-140t67-125 102-97 127-56q18 4 35 10t33 14q-22 30-34 68t-12 78q0 72 34 130t92 92 130 34zM726 384.667q-48 0-87-23t-62-62-23-87q0-46 23-85t62-62 87-23q46 0 85 23t62 62 23 85q0 48-23 87t-62 62-85 23zM726 324.667q20 0 34-14t14-34q0-18-15-33t-33-15q-20 0-34 15t-14 33q0 20 14 34t34 14zM726 96.667q-30 0-55 13t-41 37q0 14 18 25t40 16 38 5q14 0 37-5t40-16 17-25q-16-24-40-37t-54-13z" />
<glyph unicode="&#xe97a;" glyph-name="thumb_up" d="M982 512.667v-86q0-16-6-32l-130-300q-20-52-78-52h-384q-34 0-60 26t-26 60v426q0 34 26 60l280 282 46-46q18-18 18-44v-14l-42-196h270q34 0 60-25t26-59zM42 42.667v512h172v-512h-172z" />
<glyph unicode="&#xe97b;" glyph-name="thumb_up1" d="M982 512.667v-86q0-16-6-32l-130-300q-20-52-78-52h-384q-34 0-60 26t-26 60v426q0 34 26 60l280 282 46-46q18-18 18-44v-14l-42-196h270q34 0 60-25t26-59zM42 42.667v512h172v-512h-172z" />
<glyph unicode="&#xe97c;" glyph-name="thumb_down" d="M810 810.667h172v-512h-172v512zM640 810.667q34 0 60-26t26-60v-426q0-34-26-60l-280-282-46 46q-18 18-18 44v14l42 196h-270q-34 0-60 25t-26 59v86q0 16 6 32l130 300q20 52 78 52h384z" />
<glyph unicode="&#xe97d;" glyph-name="thumb_down1" d="M810 810.667h172v-512h-172v512zM640 810.667q34 0 60-26t26-60v-426q0-34-26-60l-280-282-46 46q-18 18-18 44v14l42 196h-270q-34 0-60 25t-26 59v86q0 16 6 32l130 300q20 52 78 52h384z" />
<glyph unicode="&#xe97e;" glyph-name="thumb_up_alt" d="M932 388.667l-114-262q-26-42-74-42h-346q-40 0-70 30t-30 70v334q0 36 26 62l274 272 18-20q24-24 38-52 6-14 4-28l-40-198h236q34 0 59-26t25-60v-46q0-18-6-34zM86 84.667v470h84q18 0 31-12t13-30v-384q0-18-13-31t-31-13h-84z" />
<glyph unicode="&#xe97f;" glyph-name="thumb_up_alt1" d="M932 388.667l-114-262q-26-42-74-42h-346q-40 0-70 30t-30 70v334q0 36 26 62l274 272 18-20q24-24 38-52 6-14 4-28l-40-198h236q34 0 59-26t25-60v-46q0-18-6-34zM86 84.667v470h84q18 0 31-12t13-30v-384q0-18-13-31t-31-13h-84z" />
<glyph unicode="&#xe980;" glyph-name="thumb_down_alt" d="M92 464.667l114 262q26 42 74 42h346q42 0 71-29t29-71v-334q0-36-26-62l-274-272-18 20q-24 24-38 52-6 14-4 28l40 198h-236q-34 0-59 26t-25 60v46q0 20 6 34zM938 768.667v-470h-84q-18 0-31 12t-13 30v384q0 18 13 31t31 13h84z" />
<glyph unicode="&#xe981;" glyph-name="thumb_down_alt1" d="M92 464.667l114 262q26 42 74 42h346q42 0 71-29t29-71v-334q0-36-26-62l-274-272-18 20q-24 24-38 52-6 14-4 28l40 198h-236q-34 0-59 26t-25 60v46q0 20 6 34zM938 768.667v-470h-84q-18 0-31 12t-13 30v384q0 18 13 31t31 13h84z" />
<glyph unicode="&#xe982;" glyph-name="arrow-right11" d="M481.835 695.168l225.835-225.835h-494.336c-23.552 0-42.667-19.115-42.667-42.667s19.115-42.667 42.667-42.667h494.336l-225.835-225.835c-16.683-16.683-16.683-43.691 0-60.331s43.691-16.683 60.331 0l298.667 298.667c3.925 3.925 7.083 8.619 9.259 13.824 4.309 10.453 4.309 22.229 0 32.683-2.091 5.035-5.163 9.728-9.259 13.824l-298.667 298.667c-16.683 16.683-43.691 16.683-60.331 0s-16.683-43.691 0-60.331z" />
<glyph unicode="&#xe983;" glyph-name="logout" d="M170 724.667v-596h342v-86h-342q-34 0-59 26t-25 60v596q0 34 25 60t59 26h342v-86h-342zM726 640.667l212-214-212-214-60 62 110 110h-434v84h434l-110 112z" />
<glyph unicode="&#xe984;" glyph-name="phone1" d="M981.333 216.747c0.683 30.464-10.069 59.904-28.715 82.901-19.627 24.149-48.171 41.259-82.133 46.080-34.133 4.181-72.32 13.397-110.336 27.563-18.475 6.784-38.101 9.301-57.344 7.424-28.288-2.731-55.765-14.891-77.611-36.48l-30.72-30.72c-75.52 47.659-143.36 113.792-195.541 195.797l30.976 30.976c13.739 14.080 24.021 30.976 30.165 49.323 9.045 26.965 9.131 57.003-1.664 85.803-12.331 32.128-22.101 70.144-27.477 110.72-4.437 30.464-19.456 57.387-41.088 76.971-22.997 20.736-53.589 33.237-86.485 32.896h-127.829c-3.755 0-7.765-0.171-11.648-0.512-35.157-3.2-65.792-20.395-86.741-45.483s-32.341-58.325-29.141-93.824c12.8-131.243 58.24-266.368 137.216-388.352 64.085-102.955 155.648-197.248 268.715-269.056 109.568-72.405 242.517-122.112 387.669-137.856 3.925-0.384 8.149-0.555 12.288-0.555 35.328 0.128 67.328 14.635 90.368 37.845s37.248 55.339 37.12 90.496zM896 216.747v-128c0.043-11.947-4.651-22.613-12.373-30.379s-18.304-12.587-30.123-12.629c-134.357 14.336-254.336 59.349-352.555 124.245-103.595 65.835-185.984 150.912-243.285 242.944-72.405 111.787-113.28 233.856-124.757 351.488-1.024 11.435 2.731 22.443 9.771 30.891s17.195 14.080 28.928 15.147l131.755 0.213c11.563 0.128 21.632-4.011 29.312-10.923 7.253-6.571 12.288-15.616 13.781-25.941 6.059-45.739 17.408-90.325 32.299-129.067 3.456-9.216 3.413-19.072 0.427-28.075-2.091-6.187-5.589-11.989-10.325-16.853l-53.845-53.803c-13.824-13.824-16.171-34.731-6.912-51.243 67.584-118.827 163.797-211.499 272.256-272.128 16.939-9.472 37.632-6.144 50.987 7.083l54.187 54.187c7.083 6.997 16.085 10.965 25.515 11.904 6.485 0.64 13.227-0.213 19.584-2.56 43.605-16.256 88.32-27.136 129.451-32.171 10.283-1.451 19.712-7.083 26.24-15.147 6.272-7.723 9.856-17.579 9.643-29.099z" />
<glyph unicode="&#xe985;" glyph-name="alternate_email" d="M512 298.667q52 0 90 38t38 90-38 90-90 38-90-38-38-90 38-90 90-38zM512 852.667q176 0 301-125t125-301v-62q0-64-43-108t-105-44q-78 0-126 64-64-64-152-64t-151 63-63 151 63 151 151 63 151-63 63-151v-62q0-26 19-46t45-20 45 20 19 46v62q0 140-101 241t-241 101-241-101-101-241 101-241 241-101h214v-84h-214q-176 0-301 125t-125 301 125 301 301 125z" />
<glyph unicode="&#xe9a8;" glyph-name="hammer2" d="M1010.174 44.25l-548.634 499.458 25.534 25.598c20.894 20.954 32.188 48.030 33.918 75.61 1.002 0.45 2.002 0.912 2.958 1.442l102.99 64.402c13.934 16.392 12.916 42.268-2.284 57.502l-179.12 179.608c-15.19 15.234-40.998 16.262-57.344 2.284l-64.236-103.268c-0.526-0.966-0.99-1.966-1.44-2.974-27.502-1.736-54.5-13.056-75.398-34.006l-97.428-97.702c-20.898-20.956-32.184-48.026-33.918-75.604-1.004-0.45-2.004-0.916-2.964-1.446l-102.986-64.406c-13.942-16.39-12.916-42.264 2.276-57.496l179.12-179.604c15.194-15.238 40.996-16.262 57.35-2.286l64.228 103.27c0.528 0.958 0.988 1.96 1.442 2.966 27.502 1.738 54.504 13.050 75.398 34.004l28.292 28.372 498.122-550.114c14.436-15.944 36.7-18.518 49.474-5.712l50.356 50.488c12.764 12.808 10.196 35.132-5.706 49.614z" />
<glyph unicode="&#xe9a9;" glyph-name="hammer21" d="M1010.174 44.25l-548.634 499.458 25.534 25.598c20.894 20.954 32.188 48.030 33.918 75.61 1.002 0.45 2.002 0.912 2.958 1.442l102.99 64.402c13.934 16.392 12.916 42.268-2.284 57.502l-179.12 179.608c-15.19 15.234-40.998 16.262-57.344 2.284l-64.236-103.268c-0.526-0.966-0.99-1.966-1.44-2.974-27.502-1.736-54.5-13.056-75.398-34.006l-97.428-97.702c-20.898-20.956-32.184-48.026-33.918-75.604-1.004-0.45-2.004-0.916-2.964-1.446l-102.986-64.406c-13.942-16.39-12.916-42.264 2.276-57.496l179.12-179.604c15.194-15.238 40.996-16.262 57.35-2.286l64.228 103.27c0.528 0.958 0.988 1.96 1.442 2.966 27.502 1.738 54.504 13.050 75.398 34.004l28.292 28.372 498.122-550.114c14.436-15.944 36.7-18.518 49.474-5.712l50.356 50.488c12.764 12.808 10.196 35.132-5.706 49.614z" />
<glyph unicode="&#xe9b2;" glyph-name="accessibility" d="M416 864c0 53.018 42.98 96 96 96s96-42.982 96-96c0-53.020-42.98-96-96-96s-96 42.98-96 96zM640 640l329.596 142.172-23.77 59.424-401.826-137.596h-64l-401.826 137.596-23.77-59.424 329.596-142.172v-256l-131.27-424.57 59.84-22.7 185.716 415.27h27.428l185.716-415.27 59.84 22.7-131.27 424.57z" />
<glyph unicode="&#xe9b3;" glyph-name="accessibility1" d="M416 864c0 53.018 42.98 96 96 96s96-42.982 96-96c0-53.020-42.98-96-96-96s-96 42.98-96 96zM640 640l329.596 142.172-23.77 59.424-401.826-137.596h-64l-401.826 137.596-23.77-59.424 329.596-142.172v-256l-131.27-424.57 59.84-22.7 185.716 415.27h27.428l185.716-415.27 59.84 22.7-131.27 424.57z" />
<glyph unicode="&#xf015;" glyph-name="home" horiz-adv-x="951" d="M804.571 384v-274.286c0-20-16.571-36.571-36.571-36.571h-219.429v219.429h-146.286v-219.429h-219.429c-20 0-36.571 16.571-36.571 36.571v274.286c0 1.143 0.571 2.286 0.571 3.429l328.571 270.857 328.571-270.857c0.571-1.143 0.571-2.286 0.571-3.429zM932 423.428l-35.429-42.286c-2.857-3.429-7.429-5.714-12-6.286h-1.714c-4.571 0-8.571 1.143-12 4l-395.429 329.714-395.429-329.714c-4-2.857-8.571-4.571-13.714-4-4.571 0.571-9.143 2.857-12 6.286l-35.429 42.286c-6.286 7.429-5.143 19.429 2.286 25.714l410.857 342.286c24 20 62.857 20 86.857 0l139.429-116.571v111.429c0 10.286 8 18.286 18.286 18.286h109.714c10.286 0 18.286-8 18.286-18.286v-233.143l125.143-104c7.429-6.286 8.571-18.286 2.286-25.714z" />
<glyph unicode="&#xf016;" glyph-name="home2" horiz-adv-x="951" d="M804.571 384v-274.286c0-20-16.571-36.571-36.571-36.571h-219.429v219.429h-146.286v-219.429h-219.429c-20 0-36.571 16.571-36.571 36.571v274.286c0 1.143 0.571 2.286 0.571 3.429l328.571 270.857 328.571-270.857c0.571-1.143 0.571-2.286 0.571-3.429zM932 423.428l-35.429-42.286c-2.857-3.429-7.429-5.714-12-6.286h-1.714c-4.571 0-8.571 1.143-12 4l-395.429 329.714-395.429-329.714c-4-2.857-8.571-4.571-13.714-4-4.571 0.571-9.143 2.857-12 6.286l-35.429 42.286c-6.286 7.429-5.143 19.429 2.286 25.714l410.857 342.286c24 20 62.857 20 86.857 0l139.429-116.571v111.429c0 10.286 8 18.286 18.286 18.286h109.714c10.286 0 18.286-8 18.286-18.286v-233.143l125.143-104c7.429-6.286 8.571-18.286 2.286-25.714z" />
<glyph unicode="&#xf041;" glyph-name="map-marker" horiz-adv-x="585" d="M438.857 585.143c0 80.571-65.714 146.286-146.286 146.286s-146.286-65.714-146.286-146.286 65.714-146.286 146.286-146.286 146.286 65.714 146.286 146.286zM585.143 585.143c0-34.857-4-70.857-18.857-102.286l-208-442.286c-12-25.143-38.286-40.571-65.714-40.571s-53.714 15.429-65.143 40.571l-208.571 442.286c-14.857 31.429-18.857 67.429-18.857 102.286 0 161.714 130.857 292.571 292.571 292.571s292.571-130.857 292.571-292.571z" />
<glyph unicode="&#xf042;" glyph-name="map-marker1" horiz-adv-x="585" d="M438.857 585.143c0 80.571-65.714 146.286-146.286 146.286s-146.286-65.714-146.286-146.286 65.714-146.286 146.286-146.286 146.286 65.714 146.286 146.286zM585.143 585.143c0-34.857-4-70.857-18.857-102.286l-208-442.286c-12-25.143-38.286-40.571-65.714-40.571s-53.714 15.429-65.143 40.571l-208.571 442.286c-14.857 31.429-18.857 67.429-18.857 102.286 0 161.714 130.857 292.571 292.571 292.571s292.571-130.857 292.571-292.571z" />
<glyph unicode="&#xf081;" glyph-name="twitter-square" horiz-adv-x="878" d="M731.429 602.286c-21.714-9.714-44.571-16-69.143-19.429 25.143 14.857 44 38.857 53.143 66.857-23.429-13.714-49.143-24-76.571-29.143-21.714 23.429-53.143 37.714-87.429 37.714-66.286 0-120-53.714-120-120 0-9.143 0.571-18.857 2.857-27.429-100 5.143-188.571 52.571-248 125.714-10.286-17.714-16.571-38.857-16.571-60.571 0-41.714 19.429-78.286 52-100-20 0.571-38.857 6.286-57.143 14.857v-1.143c0-58.286 44-106.857 98.857-117.714-10.286-2.857-18.286-4.571-29.143-4.571-7.429 0-14.857 1.143-22.286 2.286 15.429-47.429 59.429-82.286 112-83.429-41.143-32-92.571-51.429-149.143-51.429-9.714 0-19.429 0.571-28.571 1.714 53.143-33.714 116-53.714 184-53.714 220.571 0 341.714 182.857 341.714 341.714 0 5.143 0 10.286-0.571 15.429 23.429 16.571 44 37.714 60 62.286zM877.714 713.143v-548.571c0-90.857-73.714-164.571-164.571-164.571h-548.571c-90.857 0-164.571 73.714-164.571 164.571v548.571c0 90.857 73.714 164.571 164.571 164.571h548.571c90.857 0 164.571-73.714 164.571-164.571z" />
<glyph unicode="&#xf082;" glyph-name="facebook-square" horiz-adv-x="878" d="M713.143 877.714c90.857 0 164.571-73.714 164.571-164.571v-548.571c0-90.857-73.714-164.571-164.571-164.571h-107.429v340h113.714l17.143 132.571h-130.857v84.571c0 38.286 10.286 64 65.714 64l69.714 0.571v118.286c-12 1.714-53.714 5.143-101.714 5.143-101.143 0-170.857-61.714-170.857-174.857v-97.714h-114.286v-132.571h114.286v-340h-304c-90.857 0-164.571 73.714-164.571 164.571v548.571c0 90.857 73.714 164.571 164.571 164.571h548.571z" />
<glyph unicode="&#xf083;" glyph-name="facebook-square1" horiz-adv-x="878" d="M713.143 877.714c90.857 0 164.571-73.714 164.571-164.571v-548.571c0-90.857-73.714-164.571-164.571-164.571h-107.429v340h113.714l17.143 132.571h-130.857v84.571c0 38.286 10.286 64 65.714 64l69.714 0.571v118.286c-12 1.714-53.714 5.143-101.714 5.143-101.143 0-170.857-61.714-170.857-174.857v-97.714h-114.286v-132.571h114.286v-340h-304c-90.857 0-164.571 73.714-164.571 164.571v548.571c0 90.857 73.714 164.571 164.571 164.571h548.571z" />
<glyph unicode="&#xf084;" glyph-name="twitter-square1" horiz-adv-x="878" d="M731.429 602.286c-21.714-9.714-44.571-16-69.143-19.429 25.143 14.857 44 38.857 53.143 66.857-23.429-13.714-49.143-24-76.571-29.143-21.714 23.429-53.143 37.714-87.429 37.714-66.286 0-120-53.714-120-120 0-9.143 0.571-18.857 2.857-27.429-100 5.143-188.571 52.571-248 125.714-10.286-17.714-16.571-38.857-16.571-60.571 0-41.714 19.429-78.286 52-100-20 0.571-38.857 6.286-57.143 14.857v-1.143c0-58.286 44-106.857 98.857-117.714-10.286-2.857-18.286-4.571-29.143-4.571-7.429 0-14.857 1.143-22.286 2.286 15.429-47.429 59.429-82.286 112-83.429-41.143-32-92.571-51.429-149.143-51.429-9.714 0-19.429 0.571-28.571 1.714 53.143-33.714 116-53.714 184-53.714 220.571 0 341.714 182.857 341.714 341.714 0 5.143 0 10.286-0.571 15.429 23.429 16.571 44 37.714 60 62.286zM877.714 713.143v-548.571c0-90.857-73.714-164.571-164.571-164.571h-548.571c-90.857 0-164.571 73.714-164.571 164.571v548.571c0 90.857 73.714 164.571 164.571 164.571h548.571c90.857 0 164.571-73.714 164.571-164.571z" />
<glyph unicode="&#xf08c;" glyph-name="linkedin-square" horiz-adv-x="878" d="M135.429 142.857h132v396.571h-132v-396.571zM276 661.714c-0.571 38.857-28.571 68.571-73.714 68.571s-74.857-29.714-74.857-68.571c0-37.714 28.571-68.571 73.143-68.571h0.571c46.286 0 74.857 30.857 74.857 68.571zM610.286 142.857h132v227.429c0 121.714-65.143 178.286-152 178.286-70.857 0-102.286-39.429-119.429-66.857h1.143v57.714h-132s1.714-37.143 0-396.571v0h132v221.714c0 11.429 0.571 23.429 4 32 9.714 23.429 31.429 48 68 48 47.429 0 66.286-36 66.286-89.714v-212zM877.714 713.143v-548.571c0-90.857-73.714-164.571-164.571-164.571h-548.571c-90.857 0-164.571 73.714-164.571 164.571v548.571c0 90.857 73.714 164.571 164.571 164.571h548.571c90.857 0 164.571-73.714 164.571-164.571z" />
<glyph unicode="&#xf08d;" glyph-name="linkedin-square1" horiz-adv-x="878" d="M135.429 142.857h132v396.571h-132v-396.571zM276 661.714c-0.571 38.857-28.571 68.571-73.714 68.571s-74.857-29.714-74.857-68.571c0-37.714 28.571-68.571 73.143-68.571h0.571c46.286 0 74.857 30.857 74.857 68.571zM610.286 142.857h132v227.429c0 121.714-65.143 178.286-152 178.286-70.857 0-102.286-39.429-119.429-66.857h1.143v57.714h-132s1.714-37.143 0-396.571v0h132v221.714c0 11.429 0.571 23.429 4 32 9.714 23.429 31.429 48 68 48 47.429 0 66.286-36 66.286-89.714v-212zM877.714 713.143v-548.571c0-90.857-73.714-164.571-164.571-164.571h-548.571c-90.857 0-164.571 73.714-164.571 164.571v548.571c0 90.857 73.714 164.571 164.571 164.571h548.571c90.857 0 164.571-73.714 164.571-164.571z" />
<glyph unicode="&#xf09a;" glyph-name="facebook, facebook-f" horiz-adv-x="602" d="M548 944v-150.857h-89.714c-70.286 0-83.429-33.714-83.429-82.286v-108h167.429l-22.286-169.143h-145.143v-433.714h-174.857v433.714h-145.714v169.143h145.714v124.571c0 144.571 88.571 223.429 217.714 223.429 61.714 0 114.857-4.571 130.286-6.857z" />
<glyph unicode="&#xf09b;" glyph-name="facebook1, facebook-f1" horiz-adv-x="602" d="M548 944v-150.857h-89.714c-70.286 0-83.429-33.714-83.429-82.286v-108h167.429l-22.286-169.143h-145.143v-433.714h-174.857v433.714h-145.714v169.143h145.714v124.571c0 144.571 88.571 223.429 217.714 223.429 61.714 0 114.857-4.571 130.286-6.857z" />
<glyph unicode="&#xf0c9;" glyph-name="bars, navicon, reorder" horiz-adv-x="878" d="M877.714 182.857v-73.143c0-20-16.571-36.571-36.571-36.571h-804.571c-20 0-36.571 16.571-36.571 36.571v73.143c0 20 16.571 36.571 36.571 36.571h804.571c20 0 36.571-16.571 36.571-36.571zM877.714 475.428v-73.143c0-20-16.571-36.571-36.571-36.571h-804.571c-20 0-36.571 16.571-36.571 36.571v73.143c0 20 16.571 36.571 36.571 36.571h804.571c20 0 36.571-16.571 36.571-36.571zM877.714 768v-73.143c0-20-16.571-36.571-36.571-36.571h-804.571c-20 0-36.571 16.571-36.571 36.571v73.143c0 20 16.571 36.571 36.571 36.571h804.571c20 0 36.571-16.571 36.571-36.571z" />
<glyph unicode="&#xf0ca;" glyph-name="bars1, navicon1, reorder1" horiz-adv-x="878" d="M877.714 182.857v-73.143c0-20-16.571-36.571-36.571-36.571h-804.571c-20 0-36.571 16.571-36.571 36.571v73.143c0 20 16.571 36.571 36.571 36.571h804.571c20 0 36.571-16.571 36.571-36.571zM877.714 475.428v-73.143c0-20-16.571-36.571-36.571-36.571h-804.571c-20 0-36.571 16.571-36.571 36.571v73.143c0 20 16.571 36.571 36.571 36.571h804.571c20 0 36.571-16.571 36.571-36.571zM877.714 768v-73.143c0-20-16.571-36.571-36.571-36.571h-804.571c-20 0-36.571 16.571-36.571 36.571v73.143c0 20 16.571 36.571 36.571 36.571h804.571c20 0 36.571-16.571 36.571-36.571z" />
<glyph unicode="&#xf0e1;" glyph-name="linkedin" horiz-adv-x="878" d="M199.429 593.714v-566.286h-188.571v566.286h188.571zM211.429 768.571c0.571-54.286-40.571-97.714-106.286-97.714v0h-1.143c-63.429 0-104 43.429-104 97.714 0 55.429 42.286 97.714 106.286 97.714 64.571 0 104.571-42.286 105.143-97.714zM877.714 352v-324.571h-188v302.857c0 76-27.429 128-95.429 128-52 0-82.857-34.857-96.571-68.571-4.571-12.571-6.286-29.143-6.286-46.286v-316h-188c2.286 513.143 0 566.286 0 566.286h188v-82.286h-1.143c24.571 38.857 69.143 95.429 170.857 95.429 124 0 216.571-81.143 216.571-254.857z" />
<glyph unicode="&#xf0e2;" glyph-name="linkedin1" horiz-adv-x="878" d="M199.429 593.714v-566.286h-188.571v566.286h188.571zM211.429 768.571c0.571-54.286-40.571-97.714-106.286-97.714v0h-1.143c-63.429 0-104 43.429-104 97.714 0 55.429 42.286 97.714 106.286 97.714 64.571 0 104.571-42.286 105.143-97.714zM877.714 352v-324.571h-188v302.857c0 76-27.429 128-95.429 128-52 0-82.857-34.857-96.571-68.571-4.571-12.571-6.286-29.143-6.286-46.286v-316h-188c2.286 513.143 0 566.286 0 566.286h188v-82.286h-1.143c24.571 38.857 69.143 95.429 170.857 95.429 124 0 216.571-81.143 216.571-254.857z" />
<glyph unicode="&#xf0e8;" glyph-name="sitemap" d="M1024 237.714v-182.857c0-30.286-24.571-54.857-54.857-54.857h-182.857c-30.286 0-54.857 24.571-54.857 54.857v182.857c0 30.286 24.571 54.857 54.857 54.857h54.857v109.714h-292.571v-109.714h54.857c30.286 0 54.857-24.571 54.857-54.857v-182.857c0-30.286-24.571-54.857-54.857-54.857h-182.857c-30.286 0-54.857 24.571-54.857 54.857v182.857c0 30.286 24.571 54.857 54.857 54.857h54.857v109.714h-292.571v-109.714h54.857c30.286 0 54.857-24.571 54.857-54.857v-182.857c0-30.286-24.571-54.857-54.857-54.857h-182.857c-30.286 0-54.857 24.571-54.857 54.857v182.857c0 30.286 24.571 54.857 54.857 54.857h54.857v109.714c0 40 33.143 73.143 73.143 73.143h292.571v109.714h-54.857c-30.286 0-54.857 24.571-54.857 54.857v182.857c0 30.286 24.571 54.857 54.857 54.857h182.857c30.286 0 54.857-24.571 54.857-54.857v-182.857c0-30.286-24.571-54.857-54.857-54.857h-54.857v-109.714h292.571c40 0 73.143-33.143 73.143-73.143v-109.714h54.857c30.286 0 54.857-24.571 54.857-54.857z" />
<glyph unicode="&#xf0e9;" glyph-name="sitemap1" d="M1024 237.714v-182.857c0-30.286-24.571-54.857-54.857-54.857h-182.857c-30.286 0-54.857 24.571-54.857 54.857v182.857c0 30.286 24.571 54.857 54.857 54.857h54.857v109.714h-292.571v-109.714h54.857c30.286 0 54.857-24.571 54.857-54.857v-182.857c0-30.286-24.571-54.857-54.857-54.857h-182.857c-30.286 0-54.857 24.571-54.857 54.857v182.857c0 30.286 24.571 54.857 54.857 54.857h54.857v109.714h-292.571v-109.714h54.857c30.286 0 54.857-24.571 54.857-54.857v-182.857c0-30.286-24.571-54.857-54.857-54.857h-182.857c-30.286 0-54.857 24.571-54.857 54.857v182.857c0 30.286 24.571 54.857 54.857 54.857h54.857v109.714c0 40 33.143 73.143 73.143 73.143h292.571v109.714h-54.857c-30.286 0-54.857 24.571-54.857 54.857v182.857c0 30.286 24.571 54.857 54.857 54.857h182.857c30.286 0 54.857-24.571 54.857-54.857v-182.857c0-30.286-24.571-54.857-54.857-54.857h-54.857v-109.714h292.571c40 0 73.143-33.143 73.143-73.143v-109.714h54.857c30.286 0 54.857-24.571 54.857-54.857z" />
<glyph unicode="&#xf10c;" glyph-name="circle-o" horiz-adv-x="878" d="M438.857 749.714c-171.429 0-310.857-139.429-310.857-310.857s139.429-310.857 310.857-310.857 310.857 139.429 310.857 310.857-139.429 310.857-310.857 310.857zM877.714 438.857c0-242.286-196.571-438.857-438.857-438.857s-438.857 196.571-438.857 438.857 196.571 438.857 438.857 438.857v0c242.286 0 438.857-196.571 438.857-438.857z" />
<glyph unicode="&#xf10d;" glyph-name="circle-o1" horiz-adv-x="878" d="M438.857 749.714c-171.429 0-310.857-139.429-310.857-310.857s139.429-310.857 310.857-310.857 310.857 139.429 310.857 310.857-139.429 310.857-310.857 310.857zM877.714 438.857c0-242.286-196.571-438.857-438.857-438.857s-438.857 196.571-438.857 438.857 196.571 438.857 438.857 438.857v0c242.286 0 438.857-196.571 438.857-438.857z" />
<glyph unicode="&#xf111;" glyph-name="circle" horiz-adv-x="878" d="M877.714 438.857c0-242.286-196.571-438.857-438.857-438.857s-438.857 196.571-438.857 438.857 196.571 438.857 438.857 438.857 438.857-196.571 438.857-438.857z" />
<glyph unicode="&#xf112;" glyph-name="circle1" horiz-adv-x="878" d="M877.714 438.857c0-242.286-196.571-438.857-438.857-438.857s-438.857 196.571-438.857 438.857 196.571 438.857 438.857 438.857 438.857-196.571 438.857-438.857z" />
<glyph unicode="&#xf119;" glyph-name="frown-o" horiz-adv-x="878" d="M648 248.571c6.286-19.429-4.571-39.429-23.429-45.714-19.429-6.286-40 4.571-46.286 24-18.857 61.143-75.429 102.286-139.429 102.286s-120.571-41.143-139.429-102.286c-6.286-19.429-26.857-30.286-45.714-24-19.429 6.286-30.286 26.286-24 45.714 28.571 92 112.571 153.714 209.143 153.714s180.571-61.714 209.143-153.714zM365.714 585.143c0-40.571-32.571-73.143-73.143-73.143s-73.143 32.571-73.143 73.143 32.571 73.143 73.143 73.143 73.143-32.571 73.143-73.143zM658.286 585.143c0-40.571-32.571-73.143-73.143-73.143s-73.143 32.571-73.143 73.143 32.571 73.143 73.143 73.143 73.143-32.571 73.143-73.143zM804.571 438.857c0 201.714-164 365.714-365.714 365.714s-365.714-164-365.714-365.714 164-365.714 365.714-365.714 365.714 164 365.714 365.714zM877.714 438.857c0-242.286-196.571-438.857-438.857-438.857s-438.857 196.571-438.857 438.857 196.571 438.857 438.857 438.857 438.857-196.571 438.857-438.857z" />
<glyph unicode="&#xf11a;" glyph-name="frown-o1" horiz-adv-x="878" d="M648 248.571c6.286-19.429-4.571-39.429-23.429-45.714-19.429-6.286-40 4.571-46.286 24-18.857 61.143-75.429 102.286-139.429 102.286s-120.571-41.143-139.429-102.286c-6.286-19.429-26.857-30.286-45.714-24-19.429 6.286-30.286 26.286-24 45.714 28.571 92 112.571 153.714 209.143 153.714s180.571-61.714 209.143-153.714zM365.714 585.143c0-40.571-32.571-73.143-73.143-73.143s-73.143 32.571-73.143 73.143 32.571 73.143 73.143 73.143 73.143-32.571 73.143-73.143zM658.286 585.143c0-40.571-32.571-73.143-73.143-73.143s-73.143 32.571-73.143 73.143 32.571 73.143 73.143 73.143 73.143-32.571 73.143-73.143zM804.571 438.857c0 201.714-164 365.714-365.714 365.714s-365.714-164-365.714-365.714 164-365.714 365.714-365.714 365.714 164 365.714 365.714zM877.714 438.857c0-242.286-196.571-438.857-438.857-438.857s-438.857 196.571-438.857 438.857 196.571 438.857 438.857 438.857 438.857-196.571 438.857-438.857z" />
<glyph unicode="&#xf143;" glyph-name="rss-square" horiz-adv-x="878" d="M292.571 219.428c0 40.571-32.571 73.143-73.143 73.143s-73.143-32.571-73.143-73.143 32.571-73.143 73.143-73.143 73.143 32.571 73.143 73.143zM493.143 165.714c-9.714 177.143-150.286 317.714-327.429 327.429-5.143 0.571-10.286-1.714-13.714-5.143s-5.714-8-5.714-13.143v-73.143c0-9.714 7.429-17.714 17.143-18.286 117.143-8.571 211.429-102.857 220-220 0.571-9.714 8.571-17.143 18.286-17.143h73.143c5.143 0 9.714 2.286 13.143 5.714s5.714 8.571 5.143 13.714zM712.571 165.143c-9.714 297.143-250.286 537.714-547.429 547.429-5.714 0.571-9.714-1.143-13.143-5.143-3.429-3.429-5.714-8-5.714-13.143v-73.143c0-9.714 8-17.714 17.714-18.286 237.143-8.571 430.286-201.714 438.857-438.857 0.571-9.714 8.571-17.714 18.286-17.714h73.143c5.143 0 9.714 2.286 13.143 5.714 4 3.429 5.714 8 5.143 13.143zM877.714 713.143v-548.571c0-90.857-73.714-164.571-164.571-164.571h-548.571c-90.857 0-164.571 73.714-164.571 164.571v548.571c0 90.857 73.714 164.571 164.571 164.571h548.571c90.857 0 164.571-73.714 164.571-164.571z" />
<glyph unicode="&#xf144;" glyph-name="rss-square1" horiz-adv-x="878" d="M292.571 219.428c0 40.571-32.571 73.143-73.143 73.143s-73.143-32.571-73.143-73.143 32.571-73.143 73.143-73.143 73.143 32.571 73.143 73.143zM493.143 165.714c-9.714 177.143-150.286 317.714-327.429 327.429-5.143 0.571-10.286-1.714-13.714-5.143s-5.714-8-5.714-13.143v-73.143c0-9.714 7.429-17.714 17.143-18.286 117.143-8.571 211.429-102.857 220-220 0.571-9.714 8.571-17.143 18.286-17.143h73.143c5.143 0 9.714 2.286 13.143 5.714s5.714 8.571 5.143 13.714zM712.571 165.143c-9.714 297.143-250.286 537.714-547.429 547.429-5.714 0.571-9.714-1.143-13.143-5.143-3.429-3.429-5.714-8-5.714-13.143v-73.143c0-9.714 8-17.714 17.714-18.286 237.143-8.571 430.286-201.714 438.857-438.857 0.571-9.714 8.571-17.714 18.286-17.714h73.143c5.143 0 9.714 2.286 13.143 5.714 4 3.429 5.714 8 5.143 13.143zM877.714 713.143v-548.571c0-90.857-73.714-164.571-164.571-164.571h-548.571c-90.857 0-164.571 73.714-164.571 164.571v548.571c0 90.857 73.714 164.571 164.571 164.571h548.571c90.857 0 164.571-73.714 164.571-164.571z" />
<glyph unicode="&#xf15b;" glyph-name="file" horiz-adv-x="878" d="M585.143 658.286v269.714c8-5.143 14.857-10.286 20.571-16l233.143-233.143c5.714-5.714 10.857-12.571 16-20.571h-269.714zM512 640c0-30.286 24.571-54.857 54.857-54.857h310.857v-603.429c0-30.286-24.571-54.857-54.857-54.857h-768c-30.286 0-54.857 24.571-54.857 54.857v914.286c0 30.286 24.571 54.857 54.857 54.857h457.143v-310.857z" />
<glyph unicode="&#xf15c;" glyph-name="file1" horiz-adv-x="878" d="M585.143 658.286v269.714c8-5.143 14.857-10.286 20.571-16l233.143-233.143c5.714-5.714 10.857-12.571 16-20.571h-269.714zM512 640c0-30.286 24.571-54.857 54.857-54.857h310.857v-603.429c0-30.286-24.571-54.857-54.857-54.857h-768c-30.286 0-54.857 24.571-54.857 54.857v914.286c0 30.286 24.571 54.857 54.857 54.857h457.143v-310.857z" />
<glyph unicode="&#xf16d;" glyph-name="instagram" horiz-adv-x="878" d="M585.143 438.857c0 80.571-65.714 146.286-146.286 146.286s-146.286-65.714-146.286-146.286 65.714-146.286 146.286-146.286 146.286 65.714 146.286 146.286zM664 438.857c0-124.571-100.571-225.143-225.143-225.143s-225.143 100.571-225.143 225.143 100.571 225.143 225.143 225.143 225.143-100.571 225.143-225.143zM725.714 673.143c0-29.143-23.429-52.571-52.571-52.571s-52.571 23.429-52.571 52.571 23.429 52.571 52.571 52.571 52.571-23.429 52.571-52.571zM438.857 798.857c-64 0-201.143 5.143-258.857-17.714-20-8-34.857-17.714-50.286-33.143s-25.143-30.286-33.143-50.286c-22.857-57.714-17.714-194.857-17.714-258.857s-5.143-201.143 17.714-258.857c8-20 17.714-34.857 33.143-50.286s30.286-25.143 50.286-33.143c57.714-22.857 194.857-17.714 258.857-17.714s201.143-5.143 258.857 17.714c20 8 34.857 17.714 50.286 33.143s25.143 30.286 33.143 50.286c22.857 57.714 17.714 194.857 17.714 258.857s5.143 201.143-17.714 258.857c-8 20-17.714 34.857-33.143 50.286s-30.286 25.143-50.286 33.143c-57.714 22.857-194.857 17.714-258.857 17.714zM877.714 438.857c0-60.571 0.571-120.571-2.857-181.143-3.429-70.286-19.429-132.571-70.857-184s-113.714-67.429-184-70.857c-60.571-3.429-120.571-2.857-181.143-2.857s-120.571-0.571-181.143 2.857c-70.286 3.429-132.571 19.429-184 70.857s-67.429 113.714-70.857 184c-3.429 60.571-2.857 120.571-2.857 181.143s-0.571 120.571 2.857 181.143c3.429 70.286 19.429 132.571 70.857 184s113.714 67.429 184 70.857c60.571 3.429 120.571 2.857 181.143 2.857s120.571 0.571 181.143-2.857c70.286-3.429 132.571-19.429 184-70.857s67.429-113.714 70.857-184c3.429-60.571 2.857-120.571 2.857-181.143z" />
<glyph unicode="&#xf16e;" glyph-name="instagram1" horiz-adv-x="878" d="M585.143 438.857c0 80.571-65.714 146.286-146.286 146.286s-146.286-65.714-146.286-146.286 65.714-146.286 146.286-146.286 146.286 65.714 146.286 146.286zM664 438.857c0-124.571-100.571-225.143-225.143-225.143s-225.143 100.571-225.143 225.143 100.571 225.143 225.143 225.143 225.143-100.571 225.143-225.143zM725.714 673.143c0-29.143-23.429-52.571-52.571-52.571s-52.571 23.429-52.571 52.571 23.429 52.571 52.571 52.571 52.571-23.429 52.571-52.571zM438.857 798.857c-64 0-201.143 5.143-258.857-17.714-20-8-34.857-17.714-50.286-33.143s-25.143-30.286-33.143-50.286c-22.857-57.714-17.714-194.857-17.714-258.857s-5.143-201.143 17.714-258.857c8-20 17.714-34.857 33.143-50.286s30.286-25.143 50.286-33.143c57.714-22.857 194.857-17.714 258.857-17.714s201.143-5.143 258.857 17.714c20 8 34.857 17.714 50.286 33.143s25.143 30.286 33.143 50.286c22.857 57.714 17.714 194.857 17.714 258.857s5.143 201.143-17.714 258.857c-8 20-17.714 34.857-33.143 50.286s-30.286 25.143-50.286 33.143c-57.714 22.857-194.857 17.714-258.857 17.714zM877.714 438.857c0-60.571 0.571-120.571-2.857-181.143-3.429-70.286-19.429-132.571-70.857-184s-113.714-67.429-184-70.857c-60.571-3.429-120.571-2.857-181.143-2.857s-120.571-0.571-181.143 2.857c-70.286 3.429-132.571 19.429-184 70.857s-67.429 113.714-70.857 184c-3.429 60.571-2.857 120.571-2.857 181.143s-0.571 120.571 2.857 181.143c3.429 70.286 19.429 132.571 70.857 184s113.714 67.429 184 70.857c60.571 3.429 120.571 2.857 181.143 2.857s120.571 0.571 181.143-2.857c70.286-3.429 132.571-19.429 184-70.857s67.429-113.714 70.857-184c3.429-60.571 2.857-120.571 2.857-181.143z" />
<glyph unicode="&#xf16f;" glyph-name="instagram2" horiz-adv-x="878" d="M585.143 438.857c0 80.571-65.714 146.286-146.286 146.286s-146.286-65.714-146.286-146.286 65.714-146.286 146.286-146.286 146.286 65.714 146.286 146.286zM664 438.857c0-124.571-100.571-225.143-225.143-225.143s-225.143 100.571-225.143 225.143 100.571 225.143 225.143 225.143 225.143-100.571 225.143-225.143zM725.714 673.143c0-29.143-23.429-52.571-52.571-52.571s-52.571 23.429-52.571 52.571 23.429 52.571 52.571 52.571 52.571-23.429 52.571-52.571zM438.857 798.857c-64 0-201.143 5.143-258.857-17.714-20-8-34.857-17.714-50.286-33.143s-25.143-30.286-33.143-50.286c-22.857-57.714-17.714-194.857-17.714-258.857s-5.143-201.143 17.714-258.857c8-20 17.714-34.857 33.143-50.286s30.286-25.143 50.286-33.143c57.714-22.857 194.857-17.714 258.857-17.714s201.143-5.143 258.857 17.714c20 8 34.857 17.714 50.286 33.143s25.143 30.286 33.143 50.286c22.857 57.714 17.714 194.857 17.714 258.857s5.143 201.143-17.714 258.857c-8 20-17.714 34.857-33.143 50.286s-30.286 25.143-50.286 33.143c-57.714 22.857-194.857 17.714-258.857 17.714zM877.714 438.857c0-60.571 0.571-120.571-2.857-181.143-3.429-70.286-19.429-132.571-70.857-184s-113.714-67.429-184-70.857c-60.571-3.429-120.571-2.857-181.143-2.857s-120.571-0.571-181.143 2.857c-70.286 3.429-132.571 19.429-184 70.857s-67.429 113.714-70.857 184c-3.429 60.571-2.857 120.571-2.857 181.143s-0.571 120.571 2.857 181.143c3.429 70.286 19.429 132.571 70.857 184s113.714 67.429 184 70.857c60.571 3.429 120.571 2.857 181.143 2.857s120.571 0.571 181.143-2.857c70.286-3.429 132.571-19.429 184-70.857s67.429-113.714 70.857-184c3.429-60.571 2.857-120.571 2.857-181.143z" />
<glyph unicode="&#xf170;" glyph-name="instagram21" horiz-adv-x="878" d="M585.143 438.857c0 80.571-65.714 146.286-146.286 146.286s-146.286-65.714-146.286-146.286 65.714-146.286 146.286-146.286 146.286 65.714 146.286 146.286zM664 438.857c0-124.571-100.571-225.143-225.143-225.143s-225.143 100.571-225.143 225.143 100.571 225.143 225.143 225.143 225.143-100.571 225.143-225.143zM725.714 673.143c0-29.143-23.429-52.571-52.571-52.571s-52.571 23.429-52.571 52.571 23.429 52.571 52.571 52.571 52.571-23.429 52.571-52.571zM438.857 798.857c-64 0-201.143 5.143-258.857-17.714-20-8-34.857-17.714-50.286-33.143s-25.143-30.286-33.143-50.286c-22.857-57.714-17.714-194.857-17.714-258.857s-5.143-201.143 17.714-258.857c8-20 17.714-34.857 33.143-50.286s30.286-25.143 50.286-33.143c57.714-22.857 194.857-17.714 258.857-17.714s201.143-5.143 258.857 17.714c20 8 34.857 17.714 50.286 33.143s25.143 30.286 33.143 50.286c22.857 57.714 17.714 194.857 17.714 258.857s5.143 201.143-17.714 258.857c-8 20-17.714 34.857-33.143 50.286s-30.286 25.143-50.286 33.143c-57.714 22.857-194.857 17.714-258.857 17.714zM877.714 438.857c0-60.571 0.571-120.571-2.857-181.143-3.429-70.286-19.429-132.571-70.857-184s-113.714-67.429-184-70.857c-60.571-3.429-120.571-2.857-181.143-2.857s-120.571-0.571-181.143 2.857c-70.286 3.429-132.571 19.429-184 70.857s-67.429 113.714-70.857 184c-3.429 60.571-2.857 120.571-2.857 181.143s-0.571 120.571 2.857 181.143c3.429 70.286 19.429 132.571 70.857 184s113.714 67.429 184 70.857c60.571 3.429 120.571 2.857 181.143 2.857s120.571 0.571 181.143-2.857c70.286-3.429 132.571-19.429 184-70.857s67.429-113.714 70.857-184c3.429-60.571 2.857-120.571 2.857-181.143z" />
<glyph unicode="&#xf1db;" glyph-name="circle-thin" horiz-adv-x="878" d="M438.857 804.571c-201.714 0-365.714-164-365.714-365.714s164-365.714 365.714-365.714 365.714 164 365.714 365.714-164 365.714-365.714 365.714zM877.714 438.857c0-242.286-196.571-438.857-438.857-438.857s-438.857 196.571-438.857 438.857 196.571 438.857 438.857 438.857v0c242.286 0 438.857-196.571 438.857-438.857z" />
<glyph unicode="&#xf1dc;" glyph-name="circle-thin1" horiz-adv-x="878" d="M438.857 804.571c-201.714 0-365.714-164-365.714-365.714s164-365.714 365.714-365.714 365.714 164 365.714 365.714-164 365.714-365.714 365.714zM877.714 438.857c0-242.286-196.571-438.857-438.857-438.857s-438.857 196.571-438.857 438.857 196.571 438.857 438.857 438.857v0c242.286 0 438.857-196.571 438.857-438.857z" />
<glyph unicode="&#xf232;" glyph-name="whatsapp" horiz-adv-x="878" d="M562.857 394.286c9.714 0 102.857-48.571 106.857-55.429 1.143-2.857 1.143-6.286 1.143-8.571 0-14.286-4.571-30.286-9.714-43.429-13.143-32-66.286-52.571-98.857-52.571-27.429 0-84 24-108.571 35.429-81.714 37.143-132.571 100.571-181.714 173.143-21.714 32-41.143 71.429-40.571 110.857v4.571c1.143 37.714 14.857 64.571 42.286 90.286 8.571 8 17.714 12.571 29.714 12.571 6.857 0 13.714-1.714 21.143-1.714 15.429 0 18.286-4.571 24-19.429 4-9.714 33.143-87.429 33.143-93.143 0-21.714-39.429-46.286-39.429-59.429 0-2.857 1.143-5.714 2.857-8.571 12.571-26.857 36.571-57.714 58.286-78.286 26.286-25.143 54.286-41.714 86.286-57.714 4-2.286 8-4 12.571-4 17.143 0 45.714 55.429 60.571 55.429zM446.857 91.428c197.714 0 358.857 161.143 358.857 358.857s-161.143 358.857-358.857 358.857-358.857-161.143-358.857-358.857c0-75.429 24-149.143 68.571-210.286l-45.143-133.143 138.286 44c58.286-38.286 127.429-59.429 197.143-59.429zM446.857 881.143c237.714 0 430.857-193.143 430.857-430.857s-193.143-430.857-430.857-430.857c-72.571 0-144.571 18.286-208.571 53.714l-238.286-76.571 77.714 231.429c-40.571 66.857-61.714 144-61.714 222.286 0 237.714 193.143 430.857 430.857 430.857z" />
<glyph unicode="&#xf233;" glyph-name="whatsapp1" horiz-adv-x="878" d="M562.857 394.286c9.714 0 102.857-48.571 106.857-55.429 1.143-2.857 1.143-6.286 1.143-8.571 0-14.286-4.571-30.286-9.714-43.429-13.143-32-66.286-52.571-98.857-52.571-27.429 0-84 24-108.571 35.429-81.714 37.143-132.571 100.571-181.714 173.143-21.714 32-41.143 71.429-40.571 110.857v4.571c1.143 37.714 14.857 64.571 42.286 90.286 8.571 8 17.714 12.571 29.714 12.571 6.857 0 13.714-1.714 21.143-1.714 15.429 0 18.286-4.571 24-19.429 4-9.714 33.143-87.429 33.143-93.143 0-21.714-39.429-46.286-39.429-59.429 0-2.857 1.143-5.714 2.857-8.571 12.571-26.857 36.571-57.714 58.286-78.286 26.286-25.143 54.286-41.714 86.286-57.714 4-2.286 8-4 12.571-4 17.143 0 45.714 55.429 60.571 55.429zM446.857 91.428c197.714 0 358.857 161.143 358.857 358.857s-161.143 358.857-358.857 358.857-358.857-161.143-358.857-358.857c0-75.429 24-149.143 68.571-210.286l-45.143-133.143 138.286 44c58.286-38.286 127.429-59.429 197.143-59.429zM446.857 881.143c237.714 0 430.857-193.143 430.857-430.857s-193.143-430.857-430.857-430.857c-72.571 0-144.571 18.286-208.571 53.714l-238.286-76.571 77.714 231.429c-40.571 66.857-61.714 144-61.714 222.286 0 237.714 193.143 430.857 430.857 430.857z" />
</font>
</defs>
</svg>
